<?xml version="1.0" encoding="utf-8"?>
<!-- Generator: Adobe Illustrator 28.1.0, SVG Export Plug-In . SVG Version: 6.00 Build 0)  -->
<svg version="1.1" id="Camada_1" xmlns="http://www.w3.org/2000/svg" xmlns:xlink="http://www.w3.org/1999/xlink" x="0px" y="0px"
	 width="1225.4px" height="477.8px" viewBox="0 0 1225.4 477.8" style="enable-background:new 0 0 1225.4 477.8;"
	 xml:space="preserve">
<style type="text/css">
	.st0{fill:#EB6608;}
	.st1{display:none;fill:#E53212;}
	.st2{fill:#F29100;}
</style>
<path class="st0" d="M749.2,11.2C723.6,3.3,693.8-1.7,652,0.9l0,0c0,0,0,0,0,0c-4.9,0.3-10,0.7-15.2,1.2c-0.2,0-0.3,0-0.5,0
	c-0.9,0.1-1.8,0.2-2.8,0.3c-0.2,0-0.4,0-0.6,0.1c-0.9,0.1-1.8,0.2-2.8,0.3c-0.2,0-0.4,0-0.6,0.1c-1,0.1-1.9,0.2-2.9,0.3
	c-0.1,0-0.2,0-0.3,0c-3.2,0.4-6.5,0.8-9.8,1.3c-0.1,0-0.1,0-0.2,0c-0.9,0.1-1.8,0.3-2.8,0.4c-0.3,0.1-0.7,0.1-1,0.2
	c-0.8,0.1-1.7,0.3-2.5,0.4c-0.4,0.1-0.9,0.1-1.3,0.2c-0.8,0.1-1.6,0.3-2.5,0.4c-0.5,0.1-0.9,0.2-1.4,0.2c-0.8,0.1-1.6,0.3-2.5,0.4
	c-0.5,0.1-1,0.2-1.5,0.2c-0.8,0.1-1.7,0.3-2.5,0.4c-0.4,0.1-0.9,0.1-1.3,0.2c-1.6,0.3-3.3,0.6-5,0.9c-0.5,0.1-1,0.2-1.5,0.3
	c-0.7,0.1-1.5,0.3-2.3,0.4c-0.6,0.1-1.3,0.2-1.9,0.4c-0.7,0.1-1.5,0.3-2.2,0.4c-0.7,0.1-1.4,0.3-2.1,0.4c-0.7,0.1-1.4,0.3-2.2,0.4
	c-0.7,0.1-1.5,0.3-2.2,0.4c-0.7,0.1-1.4,0.3-2.1,0.4c-0.8,0.2-1.6,0.3-2.4,0.5c-0.7,0.1-1.4,0.3-2,0.4c-0.9,0.2-1.8,0.4-2.7,0.6
	c-0.6,0.1-1.1,0.2-1.7,0.4c-1.5,0.3-2.9,0.6-4.4,1c-0.5,0.1-1,0.2-1.5,0.3c-1,0.2-2.1,0.5-3.1,0.7c-0.6,0.1-1.2,0.3-1.9,0.4
	c-0.9,0.2-1.9,0.4-2.9,0.7c-0.7,0.2-1.3,0.3-2,0.5c-0.9,0.2-1.9,0.5-2.9,0.7c-0.7,0.2-1.3,0.3-2,0.5c-1,0.2-2,0.5-3,0.7
	c-0.6,0.2-1.3,0.3-1.9,0.5c-1.1,0.3-2.2,0.6-3.3,0.8c-0.5,0.1-1.1,0.3-1.6,0.4c-1.7,0.4-3.3,0.8-5,1.3c-2.7,0.8-5.4,1.6-8.2,2.4
	c-0.6,0.2-1.2,0.3-1.7,0.5c-2.2,0.6-4.4,1.2-6.6,1.8c-0.5,0.1-1.1,0.3-1.6,0.4c-2.3,0.6-4.6,1.2-6.8,1.8c-0.4,0.1-0.8,0.2-1.2,0.3
	c-2.4,0.6-4.9,1.3-7.4,1.9c-0.2,0.1-0.5,0.1-0.7,0.2c-2.6,0.7-5.3,1.3-7.9,2c-0.1,0-0.2,0-0.3,0.1c-2.8,0.7-5.6,1.3-8.4,2
	c0,0,0,0,0,0c-5.8,1.3-11.6,2.7-17.4,3.9l0,0C306.5,73.3,125.3,75.5,0,49v32.1v28.3v290.3v78.1h680.4h545V241.3V0
	C878.7,105.7,840.5,39.5,749.2,11.2z"/>
<path class="st1" d="M500.4,477.8l125.5-72.4c20.2-11.7,32.7-33.3,32.7-56.6V230.3c-0.1-0.1-0.2-0.1-0.2-0.1
	c-14.6-10.1-40.3-18.2-73.7-18.2c-84.3,0-146.8,63.7-226.4,128.3c-124.7,101.3-289,100.5-346.8,67.2l121.7,70.4H500.4z"/>
<path class="st2" d="M0,49v60.5c32.4,55.1,93.2,108.6,166.9,109.2c124,0.9,215.7-103.5,296.3-179.2C306.5,73.3,125.3,75.5,0,49z"/>
</svg>
