<?xml version="1.0" encoding="utf-8"?>
<!-- Generator: Adobe Illustrator 28.5.0, SVG Export Plug-In . SVG Version: 9.03 Build 54727)  -->
<svg version="1.1" id="Camada_1" xmlns="http://www.w3.org/2000/svg" xmlns:xlink="http://www.w3.org/1999/xlink" x="0px" y="0px"
	 width="990px" height="188px" viewBox="0 0 990 188" style="enable-background:new 0 0 990 188;" xml:space="preserve">
<style type="text/css">
	.st0{fill:#FFE495;}
	.st1{fill:#FABD5D;}
	.st2{fill:#575756;}
	.st3{fill:#F29224;}
</style>
<g>
	<path class="st0" d="M133,146.8h-13.5c-5.8,0-11-3.4-13.2-8.7L57.5,25c-4.1-9.5,2.9-20.1,13.2-20.1h13.5c5.8,0,11,3.4,13.2,8.7
		l48.9,113.1C150.4,136.2,143.4,146.8,133,146.8z"/>
</g>
<g>
	<path class="st1" d="M115.4,146.8H102c-5.8,0-11-3.4-13.2-8.7L39.8,25c-4.1-9.5,2.9-20.1,13.2-20.1h13.5c5.8,0,11,3.4,13.2,8.7
		l48.9,113.1C132.8,136.2,125.8,146.8,115.4,146.8z"/>
</g>
<g>
	<path class="st2" d="M278.9,71.9v74h-10.7v-20.8c-7.4,13.4-21.7,21.7-42,21.7c-26.2,0-42-13.4-42-33.3c0-17.7,11.2-32.6,43.6-32.6
		h40v-9.4c0-21.7-11.8-33.3-34.7-33.3c-16.1,0-30.6,6-40.2,14.8l-5.6-8c11.6-10.3,28.6-16.5,46.7-16.5
		C262.8,28.3,278.9,43.1,278.9,71.9z M267.7,111.5V89.6h-39.8c-24.1,0-32.6,10.1-32.6,23.5c0,15.2,11.8,24.6,32.4,24.6
		C247.3,137.7,261,128.3,267.7,111.5z"/>
	<path class="st2" d="M300.2,87.6c0-34.9,24.8-59.2,59-59.2c18.6,0,34.7,7.2,44.3,21.5l-8.3,6c-8.5-11.8-21.5-17.4-36-17.4
		c-27.5,0-47.6,19.7-47.6,49.2s20.1,49.2,47.6,49.2c14.5,0,27.5-5.6,36-17.4l8.3,6c-9.6,14.1-25.7,21.5-44.3,21.5
		C325,146.8,300.2,122.2,300.2,87.6z"/>
	<path class="st2" d="M486.5,138.6c-5.8,5.6-15.2,8.3-23.9,8.3c-20.6,0-31.7-12.1-31.7-31.7V38.8h-21.5v-9.6h21.5V3.7H442v25.5h37.1
		v9.6H442V114c0,15,7.4,23.3,21.7,23.3c6.9,0,13.4-2.2,18.1-6.5L486.5,138.6z"/>
	<path class="st2" d="M487.6,87.6c0-34.7,24.8-59.2,58.4-59.2s58.4,24.6,58.4,59.2s-24.8,59.2-58.4,59.2S487.6,122.2,487.6,87.6z
		 M592.9,87.6c0-29.3-20.1-49.2-47-49.2c-26.8,0-47,19.9-47,49.2s20.1,49.2,47,49.2C572.8,136.8,592.9,116.9,592.9,87.6z"/>
</g>
<g>
	<path class="st3" d="M7.3,123.7c0-11.6,9.4-21,21-21c11.6,0,21,9.4,21,21c0,11.6-9.4,21-21,21C16.7,144.6,7.3,135.3,7.3,123.7"/>
</g>
<g>
	<path class="st3" d="M97.8,146.8H84.3c-5.8,0-11-3.4-13.2-8.7L22.2,25c-4.1-9.5,2.9-20.1,13.2-20.1h13.5c5.8,0,11,3.4,13.2,8.7
		L111,126.7C115.1,136.2,108.2,146.8,97.8,146.8z"/>
</g>
<g>
	<path class="st3" d="M681.6,101.4c-4.8,0-9.2-0.8-13.3-2.4c-4.1-1.6-7.6-3.8-10.6-6.8c-3-2.9-5.3-6.3-7-10.2
		c-1.7-3.9-2.5-8.2-2.5-12.9s0.8-9,2.5-12.9c1.7-3.9,4-7.3,7-10.2c3-2.9,6.5-5.2,10.6-6.8c4.1-1.6,8.5-2.4,13.3-2.4
		c4.9,0,9.4,0.8,13.5,2.5c4.1,1.7,7.6,4.1,10.5,7.4l-5.9,5.7c-2.4-2.5-5.1-4.4-8.1-5.6c-3-1.2-6.2-1.9-9.7-1.9
		c-3.6,0-6.8,0.6-9.9,1.8c-3,1.2-5.7,2.9-7.9,5.1c-2.2,2.2-4,4.7-5.2,7.7c-1.2,3-1.8,6.2-1.8,9.7c0,3.5,0.6,6.7,1.8,9.7
		c1.2,3,3,5.6,5.2,7.7c2.2,2.2,4.9,3.9,7.9,5.1c3,1.2,6.3,1.8,9.9,1.8c3.4,0,6.6-0.6,9.7-1.9c3-1.2,5.7-3.1,8.1-5.7l5.9,5.7
		c-2.9,3.2-6.4,5.7-10.5,7.4C691.1,100.5,686.6,101.4,681.6,101.4z"/>
	<path class="st3" d="M715.1,43.6c-1.7,0-3.1-0.5-4.2-1.6c-1.1-1.1-1.7-2.4-1.7-4c0-1.6,0.6-3,1.7-4.1c1.1-1.1,2.5-1.6,4.2-1.6
		c1.7,0,3.1,0.5,4.2,1.6c1.1,1.1,1.7,2.4,1.7,3.9c0,1.6-0.5,3-1.6,4.1C718.3,43.1,716.9,43.6,715.1,43.6z M710.8,100.6V52.8h8.7
		v47.8H710.8z"/>
	<path class="st3" d="M750.1,101.2c-4.6,0-8.8-1-12.4-3.1c-3.6-2-6.5-4.9-8.6-8.6c-2.1-3.7-3.2-7.9-3.2-12.8c0-4.9,1.1-9.1,3.2-12.8
		c2.1-3.6,5-6.5,8.6-8.5c3.6-2,7.8-3.1,12.4-3.1c4,0,7.7,0.9,10.9,2.7c3.2,1.8,5.9,4.5,7.8,8.1c2,3.6,2.9,8.1,2.9,13.5
		c0,5.4-0.9,9.9-2.8,13.5c-1.9,3.6-4.5,6.3-7.7,8.2C757.9,100.3,754.2,101.2,750.1,101.2z M750.8,93.6c3,0,5.7-0.7,8.2-2.1
		c2.4-1.4,4.4-3.4,5.8-5.9c1.4-2.6,2.1-5.5,2.1-8.9c0-3.4-0.7-6.4-2.1-8.9c-1.4-2.5-3.3-4.4-5.8-5.8c-2.4-1.4-5.2-2.1-8.2-2.1
		c-3.1,0-5.8,0.7-8.2,2.1c-2.4,1.4-4.3,3.3-5.8,5.8c-1.4,2.5-2.2,5.5-2.2,8.9c0,3.4,0.7,6.3,2.2,8.9c1.4,2.6,3.4,4.5,5.8,5.9
		C745,92.9,747.7,93.6,750.8,93.6z M767.1,100.6V87.7l0.5-11.1l-0.9-11.1V33.7h8.7v67H767.1z"/>
	<path class="st3" d="M799.7,101.2c-3.6,0-6.7-0.6-9.3-1.8c-2.7-1.2-4.7-2.9-6.2-5c-1.4-2.1-2.2-4.6-2.2-7.3c0-2.6,0.6-4.9,1.9-7
		c1.2-2.1,3.2-3.8,6-5.1c2.8-1.3,6.6-1.9,11.3-1.9h15.2v6.2h-14.8c-4.3,0-7.3,0.7-8.8,2.2c-1.5,1.4-2.3,3.2-2.3,5.2
		c0,2.3,0.9,4.2,2.8,5.6c1.9,1.4,4.5,2.1,7.8,2.1c3.2,0,6.1-0.7,8.5-2.2c2.4-1.4,4.2-3.5,5.3-6.3l1.7,6c-1.1,2.8-3.2,5.1-6,6.7
		C807.7,100.4,804.1,101.2,799.7,101.2z M815.4,100.6V90.5l-0.5-1.9V71.4c0-3.7-1.1-6.5-3.2-8.5c-2.1-2-5.3-3-9.6-3
		c-2.8,0-5.6,0.5-8.3,1.4c-2.7,0.9-5,2.2-6.9,3.7l-3.6-6.5c2.5-2,5.4-3.5,8.9-4.6c3.5-1.1,7.1-1.6,10.9-1.6c6.6,0,11.6,1.6,15.2,4.8
		c3.5,3.2,5.3,8.1,5.3,14.6v28.9H815.4z"/>
	<path class="st3" d="M854.3,101.2c-4.6,0-8.8-1-12.4-3.1c-3.6-2-6.5-4.9-8.6-8.6c-2.1-3.7-3.2-7.9-3.2-12.8c0-4.9,1.1-9.1,3.2-12.8
		c2.1-3.6,5-6.5,8.6-8.5c3.6-2,7.8-3.1,12.4-3.1c4,0,7.7,0.9,10.9,2.7c3.2,1.8,5.9,4.5,7.8,8.1c2,3.6,2.9,8.1,2.9,13.5
		c0,5.4-0.9,9.9-2.8,13.5c-1.9,3.6-4.5,6.3-7.7,8.2C862.1,100.3,858.4,101.2,854.3,101.2z M855,93.6c3,0,5.7-0.7,8.2-2.1
		c2.4-1.4,4.4-3.4,5.8-5.9c1.4-2.6,2.1-5.5,2.1-8.9c0-3.4-0.7-6.4-2.1-8.9c-1.4-2.5-3.3-4.4-5.8-5.8c-2.4-1.4-5.2-2.1-8.2-2.1
		c-3.1,0-5.8,0.7-8.2,2.1c-2.4,1.4-4.3,3.3-5.8,5.8c-1.4,2.5-2.2,5.5-2.2,8.9c0,3.4,0.7,6.3,2.2,8.9c1.4,2.6,3.4,4.5,5.8,5.9
		C849.2,92.9,851.9,93.6,855,93.6z M871.3,100.6V87.7l0.5-11.1L871,65.5V33.7h8.7v67H871.3z"/>
	<path class="st3" d="M903.9,101.2c-3.6,0-6.7-0.6-9.3-1.8c-2.7-1.2-4.7-2.9-6.2-5c-1.4-2.1-2.2-4.6-2.2-7.3c0-2.6,0.6-4.9,1.8-7
		c1.2-2.1,3.2-3.8,6-5.1c2.8-1.3,6.6-1.9,11.3-1.9h15.2v6.2h-14.8c-4.3,0-7.3,0.7-8.8,2.2c-1.5,1.4-2.3,3.2-2.3,5.2
		c0,2.3,0.9,4.2,2.8,5.6c1.9,1.4,4.5,2.1,7.8,2.1c3.2,0,6.1-0.7,8.5-2.2c2.4-1.4,4.2-3.5,5.3-6.3l1.7,6c-1.1,2.8-3.2,5.1-6,6.7
		C911.9,100.4,908.3,101.2,903.9,101.2z M919.6,100.6V90.5l-0.5-1.9V71.4c0-3.7-1.1-6.5-3.2-8.5c-2.1-2-5.3-3-9.6-3
		c-2.8,0-5.6,0.5-8.3,1.4c-2.7,0.9-5,2.2-6.9,3.7l-3.6-6.5c2.5-2,5.4-3.5,8.9-4.6c3.5-1.1,7.1-1.6,10.9-1.6c6.6,0,11.6,1.6,15.2,4.8
		c3.5,3.2,5.3,8.1,5.3,14.6v28.9H919.6z M914.2,45.6c-1.4,0-2.7-0.3-3.8-0.9c-1.1-0.6-2.1-1.3-3-2.1c-0.9-0.8-1.8-1.5-2.6-2.1
		c-0.8-0.6-1.7-0.9-2.5-0.9c-1.3,0-2.4,0.5-3.2,1.5c-0.8,1-1.3,2.4-1.4,4.1h-4.9c0.1-3.4,1-6,2.5-8c1.6-2,3.7-3,6.3-3
		c1.4,0,2.7,0.3,3.9,0.9c1.1,0.6,2.2,1.4,3.1,2.2c0.9,0.8,1.8,1.5,2.6,2.1c0.8,0.6,1.6,0.9,2.5,0.9c1.3,0,2.4-0.5,3.2-1.4
		c0.8-1,1.3-2.3,1.4-4h4.9c-0.1,3.2-0.9,5.8-2.5,7.8C919,44.6,916.9,45.6,914.2,45.6z"/>
	<path class="st3" d="M959.2,101.2c-4.8,0-9-1.1-12.8-3.2c-3.8-2.1-6.7-5-8.9-8.7c-2.2-3.7-3.2-7.9-3.2-12.6c0-4.8,1.1-8.9,3.2-12.6
		c2.2-3.6,5.1-6.5,8.8-8.6c3.7-2.1,8-3.2,12.8-3.2c4.8,0,9,1,12.8,3.1c3.8,2.1,6.7,4.9,8.8,8.6c2.1,3.7,3.2,7.9,3.2,12.6
		c0,4.8-1.1,9-3.2,12.6c-2.1,3.7-5.1,6.6-8.8,8.7C968.2,100.1,963.9,101.2,959.2,101.2z M959.2,93.6c3.1,0,5.8-0.7,8.3-2.1
		c2.4-1.4,4.3-3.4,5.7-5.9c1.4-2.6,2.1-5.5,2.1-8.9c0-3.4-0.7-6.4-2.1-8.9c-1.4-2.5-3.3-4.4-5.7-5.8c-2.4-1.4-5.2-2.1-8.3-2.1
		c-3.1,0-5.8,0.7-8.2,2.1c-2.4,1.4-4.3,3.3-5.8,5.8c-1.4,2.5-2.2,5.5-2.2,8.9c0,3.4,0.7,6.3,2.2,8.9c1.4,2.6,3.4,4.5,5.8,5.9
		C953.4,92.9,956.1,93.6,959.2,93.6z"/>
</g>
</svg>
