<?xml version="1.0" encoding="utf-8"?>
<!-- Generator: Adobe Illustrator 28.2.0, SVG Export Plug-In . SVG Version: 6.00 Build 0)  -->
<svg version="1.1" id="Camada_1" xmlns="http://www.w3.org/2000/svg" xmlns:xlink="http://www.w3.org/1999/xlink" x="0px" y="0px"
	 width="494.3px" height="56.9px" viewBox="0 0 494.3 56.9" style="enable-background:new 0 0 494.3 56.9;" xml:space="preserve">
<style type="text/css">
	.st0{fill-rule:evenodd;clip-rule:evenodd;fill:#46BAB8;}
	.st1{fill-rule:evenodd;clip-rule:evenodd;fill:#B7DDD3;}
	.st2{fill:#575756;}
	.st3{fill-rule:evenodd;clip-rule:evenodd;fill:#1B5D71;}
</style>
<path class="st0" d="M26.1,0C11.7,0,0,11.7,0,26.1s11.7,26.1,26.1,26.1s26.1-11.7,26.1-26.1S40.6,0,26.1,0z M26.1,43.3
	C16.6,43.3,9,35.6,9,26.1S16.6,9,26.1,9s17.2,7.7,17.2,17.2S35.6,43.3,26.1,43.3z"/>
<path class="st1" d="M34,1.2C34,2,33.9,2.8,33.7,3.6C33.4,5.8,32.9,8,32.1,10c6.5,2.4,11.2,8.7,11.2,16.1c0,6.6-3.8,12.4-9.2,15.2
	c0,0.4,0,0.8,0.1,1.2c0.2,1.2,0.6,2.4,0.9,3.6c0.4,1.4,0.7,2.8,0.9,4.2c9.6-3.9,16.4-13.3,16.4-24.2C52.3,14.5,44.6,4.6,34,1.2z"/>
<g>
	<path class="st2" d="M68.6,27.8c0-10.5,8-18.3,18.7-18.3c5.1,0,9.7,1.7,12.8,5l-1.7,1.7c-3.1-3-6.9-4.3-11.1-4.3
		c-9.2,0-16.2,6.8-16.2,15.9s7,15.9,16.2,15.9c4.2,0,8-1.3,11.1-4.3l1.7,1.7c-3.1,3.4-7.7,5.1-12.8,5.1
		C76.6,46.1,68.6,38.3,68.6,27.8z"/>
	<path class="st2" d="M104.2,10.3c0-1.1,0.9-2.1,2.1-2.1c1.2,0,2.1,0.9,2.1,2.1c0,1.2-0.9,2.1-2.1,2.1
		C105.2,12.4,104.2,11.4,104.2,10.3z M105.1,18.9h2.6v26.9h-2.6V18.9z"/>
	<path class="st2" d="M139.8,7.6v38.3h-2.5v-6.3c-2.1,4.2-6.2,6.5-11,6.5c-7.6,0-13.3-5.6-13.3-13.7c0-8.1,5.7-13.7,13.3-13.7
		c4.8,0,8.8,2.4,11,6.4V7.6H139.8z M137.2,32.4c0-6.8-4.6-11.3-10.8-11.3c-6.2,0-10.8,4.6-10.8,11.3s4.6,11.3,10.8,11.3
		C132.6,43.7,137.2,39.1,137.2,32.4z"/>
	<path class="st2" d="M167.5,28.8v17.1H165V41c-1.7,3.1-5,5-9.7,5c-6,0-9.7-3.1-9.7-7.7c0-4.1,2.6-7.5,10.1-7.5h9.2v-2.2
		c0-5-2.7-7.7-8-7.7c-3.7,0-7.1,1.4-9.3,3.4l-1.3-1.9c2.7-2.4,6.6-3.8,10.8-3.8C163.7,18.7,167.5,22.1,167.5,28.8z M164.9,37.9v-5.1
		h-9.2c-5.6,0-7.5,2.3-7.5,5.4c0,3.5,2.7,5.7,7.5,5.7C160.2,43.9,163.3,41.8,164.9,37.9z"/>
	<path class="st2" d="M199.6,7.6v38.3h-2.5v-6.3c-2.1,4.2-6.2,6.5-11,6.5c-7.6,0-13.3-5.6-13.3-13.7c0-8.1,5.7-13.7,13.3-13.7
		c4.8,0,8.8,2.4,11,6.4V7.6H199.6z M197,32.4c0-6.8-4.6-11.3-10.8-11.3s-10.8,4.6-10.8,11.3s4.6,11.3,10.8,11.3S197,39.1,197,32.4z"
		/>
	<path class="st2" d="M230.9,33h-23.2c0.3,6.4,5,10.7,11.4,10.7c3.4,0,6.6-1.2,8.6-3.8l1.5,1.7c-2.4,2.9-6.1,4.4-10.2,4.4
		c-8.1,0-13.9-5.7-13.9-13.7s5.5-13.7,12.9-13.7c7.4,0,12.8,5.6,12.8,13.6C230.9,32.5,230.9,32.7,230.9,33z M207.8,31h20.6
		c-0.4-5.8-4.6-10-10.3-10C212.4,21,208.2,25.1,207.8,31z"/>
	<path class="st2" d="M251,9.7h2.6v36.1H251V9.7z"/>
	<path class="st2" d="M286.3,30.1v15.7h-2.6V30.3c0-6.1-3.2-9.3-8.7-9.3c-6.3,0-10.2,4.1-10.2,10.5v14.3h-2.6V18.9h2.5v5.8
		c1.8-3.8,5.6-6,10.7-6C281.9,18.7,286.3,22.6,286.3,30.1z"/>
	<path class="st2" d="M306.8,44.1c-1.3,1.3-3.5,1.9-5.5,1.9c-4.7,0-7.3-2.8-7.3-7.3V21.1h-5v-2.2h5V13h2.6v5.9h8.6v2.2h-8.6v17.3
		c0,3.5,1.7,5.4,5,5.4c1.6,0,3.1-0.5,4.2-1.5L306.8,44.1z"/>
	<path class="st2" d="M333.2,33H310c0.3,6.4,5,10.7,11.4,10.7c3.4,0,6.5-1.2,8.6-3.8l1.5,1.7c-2.4,2.9-6.1,4.4-10.2,4.4
		c-8.1,0-13.9-5.7-13.9-13.7s5.5-13.7,12.9-13.7s12.8,5.6,12.8,13.6C333.2,32.5,333.2,32.7,333.2,33z M310,31h20.6
		c-0.4-5.8-4.6-10-10.3-10S310.5,25.1,310,31z"/>
	<path class="st2" d="M338.6,7.6h2.6v38.3h-2.6V7.6z"/>
	<path class="st2" d="M348.1,10.3c0-1.1,0.9-2.1,2.1-2.1c1.2,0,2.1,0.9,2.1,2.1c0,1.2-0.9,2.1-2.1,2.1
		C349,12.4,348.1,11.4,348.1,10.3z M348.9,18.9h2.6v26.9h-2.6V18.9z"/>
	<path class="st2" d="M384,18.9v24c0,9-4.4,13.1-13,13.1c-4.9,0-9.6-1.5-12.3-4.3l1.4-2c2.7,2.5,6.5,3.9,10.9,3.9
		c7.2,0,10.5-3.3,10.5-10.5v-4.5c-2.2,3.9-6.3,6.1-11.2,6.1c-7.6,0-13.4-5.4-13.4-13.1s5.8-13,13.4-13c5,0,9.1,2.3,11.3,6.3v-6.1
		H384z M381.4,31.8c0-6.3-4.6-10.7-11-10.7c-6.3,0-11,4.4-11,10.7s4.6,10.8,11,10.8C376.8,42.5,381.4,38.1,381.4,31.8z"/>
	<path class="st2" d="M415.3,33h-23.2c0.3,6.4,5,10.7,11.4,10.7c3.4,0,6.5-1.2,8.6-3.8l1.5,1.7c-2.4,2.9-6.1,4.4-10.2,4.4
		c-8.1,0-13.9-5.7-13.9-13.7s5.5-13.7,12.9-13.7s12.8,5.6,12.8,13.6C415.3,32.5,415.3,32.7,415.3,33z M392.2,31h20.6
		c-0.4-5.8-4.6-10-10.3-10S392.6,25.1,392.2,31z"/>
	<path class="st2" d="M444.8,30.1v15.7h-2.6V30.3c0-6.1-3.2-9.3-8.7-9.3c-6.3,0-10.2,4.1-10.2,10.5v14.3h-2.6V18.9h2.5v5.8
		c1.8-3.8,5.6-6,10.7-6C440.5,18.7,444.8,22.6,444.8,30.1z"/>
	<path class="st2" d="M465.4,44.1c-1.3,1.3-3.5,1.9-5.5,1.9c-4.7,0-7.3-2.8-7.3-7.3V21.1h-5v-2.2h5V13h2.6v5.9h8.6v2.2h-8.6v17.3
		c0,3.5,1.7,5.4,5,5.4c1.6,0,3.1-0.5,4.2-1.5L465.4,44.1z"/>
	<path class="st2" d="M491.7,33h-23.2c0.3,6.4,5,10.7,11.4,10.7c3.4,0,6.5-1.2,8.6-3.8l1.5,1.7c-2.4,2.9-6.1,4.4-10.2,4.4
		c-8.1,0-13.9-5.7-13.9-13.7s5.5-13.7,12.9-13.7s12.8,5.6,12.8,13.6C491.8,32.5,491.7,32.7,491.7,33z M468.6,31h20.6
		c-0.4-5.8-4.6-10-10.3-10S469,25.1,468.6,31z"/>
</g>
<path class="st3" d="M26.4,52.3c7.6,0,14.5-3.2,19.3-8.4c1.5-1.6,0-3.9-1.9-4.3c-6.4-1.3-14.2,4.7-22.3,6.8
	c-4.6,1.2-10.3,1-14.2-2.3C12.2,49.1,18.9,52.3,26.4,52.3L26.4,52.3z"/>
<path class="st3" d="M26.2,0c7.6,0,14.5,3.2,19.3,8.4c1.5,1.6,0,3.9-1.9,4.3c-8.1,1.7-18.8-8.6-29.2-7.5c-1.9,0.2-3.8,0.8-5.9,2
	C8.1,7.6,7.5,7.9,7.1,8.1C11.9,3.1,18.7,0,26.2,0L26.2,0z"/>
<g>
</g>
<g>
</g>
<g>
</g>
<g>
</g>
<g>
</g>
<g>
</g>
</svg>
