<?xml version="1.0" encoding="utf-8"?>
<!-- Generator: Adobe Illustrator 29.1.0, SVG Export Plug-In . SVG Version: 9.03 Build 55587)  -->
<svg version="1.0" id="Camada_1" xmlns="http://www.w3.org/2000/svg" xmlns:xlink="http://www.w3.org/1999/xlink" x="0px" y="0px"
	 width="1093.6px" height="188px" viewBox="0 0 1093.6 188" enable-background="new 0 0 1093.6 188" xml:space="preserve">
<g>
	<path fill="#D1BBA6" d="M129.8,145.7h-13c-5.6,0-10.6-3.3-12.8-8.4L56.7,27.8c-4-9.2,2.8-19.5,12.8-19.5h13
		c5.6,0,10.6,3.3,12.8,8.4l47.3,109.5C146.6,135.4,139.9,145.7,129.8,145.7z"/>
</g>
<g>
	<path fill="#A87B5C" d="M112.8,145.7h-13c-5.6,0-10.6-3.3-12.8-8.4L39.6,27.8c-4-9.2,2.8-19.5,12.8-19.5h13
		c5.6,0,10.6,3.3,12.8,8.4l47.3,109.5C129.6,135.4,122.8,145.7,112.8,145.7z"/>
</g>
<g>
	<path fill="#575756" d="M271,73.2v71.7h-10.4v-20.1c-7.1,13-21,21-40.7,21c-25.3,0-40.7-13-40.7-32.3c0-17.1,10.8-31.6,42.2-31.6
		h38.7v-9.1c0-21-11.5-32.3-33.6-32.3c-15.6,0-29.7,5.8-39,14.3l-5.4-7.8c11.3-10,27.7-16,45.2-16C255.4,31,271,45.3,271,73.2z
		 M260.2,111.5V90.3h-38.5c-23.4,0-31.6,9.7-31.6,22.7c0,14.7,11.5,23.8,31.4,23.8C240.5,136.8,253.7,127.7,260.2,111.5z"/>
	<path fill="#575756" d="M291.7,88.3c0-33.8,24-57.4,57.1-57.4c18,0,33.6,6.9,42.9,20.8l-8,5.8c-8.2-11.5-20.8-16.9-34.9-16.9
		c-26.6,0-46.1,19-46.1,47.6s19.5,47.6,46.1,47.6c14.1,0,26.6-5.4,34.9-16.9l8,5.8c-9.3,13.6-24.9,20.8-42.9,20.8
		C315.7,145.7,291.7,121.9,291.7,88.3z"/>
	<path fill="#575756" d="M472,137.7c-5.6,5.4-14.7,8-23.2,8c-19.9,0-30.7-11.7-30.7-30.7V41.1h-20.8v-9.3h20.8V7.2h10.8v24.7h35.9
		v9.3h-35.9v72.7c0,14.5,7.1,22.5,21,22.5c6.7,0,13-2.2,17.5-6.3L472,137.7z"/>
	<path fill="#575756" d="M473.1,88.3c0-33.6,24-57.4,56.5-57.4s56.5,23.8,56.5,57.4s-24,57.4-56.5,57.4S473.1,121.9,473.1,88.3z
		 M575.1,88.3c0-28.4-19.5-47.6-45.5-47.6S484.1,60,484.1,88.3c0,28.4,19.5,47.6,45.5,47.6C555.6,136,575.1,116.7,575.1,88.3z"/>
</g>
<g>
	<path fill="#8E4B30" d="M8.1,123.3c0-11.2,9.1-20.3,20.3-20.3s20.3,9.1,20.3,20.3s-9.1,20.3-20.3,20.3S8.1,134.5,8.1,123.3"/>
</g>
<g>
	<path fill="#8E4B30" d="M95.7,145.7h-13c-5.6,0-10.6-3.3-12.8-8.4L22.5,27.8c-4-9.2,2.8-19.5,12.8-19.5h13c5.6,0,10.6,3.3,12.8,8.4
		l47.3,109.5C112.5,135.4,105.8,145.7,95.7,145.7z"/>
</g>
<g>
	<path fill="#8E4B30" d="M629,40.9h25.7c19.6,0,33,12.4,33,30.5s-13.3,30.5-33,30.5H629V40.9z M654.2,94.4
		c15.1,0,24.8-9.2,24.8-22.9s-9.7-22.9-24.8-22.9h-16.5v45.9H654.2z"/>
	<path fill="#8E4B30" d="M737,81.6h-37.5c1,8.1,7.6,13.5,16.7,13.5c5.4,0,9.9-1.8,13.3-5.6l4.6,5.4c-4.2,4.9-10.6,7.5-18.2,7.5
		c-14.9,0-24.9-9.9-24.9-23.6c0-13.7,9.9-23.5,23.2-23.5c13.3,0,22.9,9.6,22.9,23.8C737.2,79.8,737.1,80.9,737,81.6z M699.5,75.6
		h29.7c-0.9-7.8-6.7-13.3-14.8-13.3C706.3,62.4,700.4,67.8,699.5,75.6z"/>
	<path fill="#8E4B30" d="M753.9,51.7v4h13.4v6.9h-13.3V102h-8.4V62.6h-7.9v-6.9h7.9v-4.1c0-9,5.4-14.9,15.3-14.9
		c3.6,0,7.1,0.9,9.4,2.7l-2.5,6.4c-1.7-1.3-4-2.2-6.5-2.2C756.4,43.6,753.9,46.4,753.9,51.7z"/>
	<path fill="#8E4B30" d="M811.8,81.6h-37.5c1,8.1,7.6,13.5,16.7,13.5c5.4,0,9.9-1.8,13.3-5.6L809,95c-4.2,4.9-10.6,7.5-18.2,7.5
		c-14.9,0-24.9-9.9-24.9-23.6c0-13.7,9.9-23.5,23.2-23.5S812,64.9,812,79.1C812,79.8,811.9,80.9,811.8,81.6z M774.3,75.6h29.7
		c-0.9-7.8-6.7-13.3-14.8-13.3C781.1,62.4,775.2,67.8,774.3,75.6z"/>
	<path fill="#8E4B30" d="M813.4,97.1l3.5-6.6c3.9,2.8,10.2,4.8,16.2,4.8c7.8,0,11-2.4,11-6.3c0-10.4-29.2-1.4-29.2-19.8
		c0-8.3,7.4-13.9,19.3-13.9c6,0,12.8,1.6,16.8,4.2l-3.6,6.6c-4.2-2.7-8.8-3.7-13.3-3.7c-7.3,0-10.9,2.7-10.9,6.4
		c0,10.9,29.3,2,29.3,20c0,8.4-7.7,13.7-20,13.7C824.8,102.5,817.2,100.1,813.4,97.1z"/>
	<path fill="#8E4B30" d="M895.2,74.1V102h-7.9v-6.1c-2.8,4.2-7.9,6.6-15.2,6.6c-10.5,0-17.1-5.6-17.1-13.6c0-7.4,4.8-13.5,18.6-13.5
		h13.3v-1.7c0-7.1-4.1-11.2-12.4-11.2c-5.5,0-11.1,1.9-14.7,5l-3.5-6.3c4.8-3.8,11.7-5.9,19.1-5.9C888,55.3,895.2,61.4,895.2,74.1z
		 M886.8,87.8v-6.5h-12.9c-8.3,0-10.6,3.2-10.6,7.2c0,4.6,3.8,7.5,10.2,7.5C879.7,96,884.7,93.2,886.8,87.8z"/>
	<path fill="#8E4B30" d="M921.7,71.4c0-18.1,13.8-31.2,32.4-31.2c9.4,0,17.6,3.2,23.2,9.5l-5.7,5.5c-4.7-5-10.5-7.2-17.2-7.2
		c-13.8,0-24,9.9-24,23.5s10.2,23.5,24,23.5c6.7,0,12.5-2.4,17.2-7.3l5.7,5.5c-5.6,6.3-13.8,9.6-23.3,9.6
		C935.5,102.7,921.7,89.5,921.7,71.4z"/>
	<path fill="#8E4B30" d="M982.7,41.4c0-3.1,2.4-5.5,5.7-5.5c3.2,0,5.7,2.4,5.7,5.3c0,3.1-2.4,5.6-5.7,5.6
		C985.1,46.8,982.7,44.5,982.7,41.4z M984.1,55.7h8.4V102h-8.4V55.7z"/>
	<path fill="#8E4B30" d="M1045,55.7l-20.2,46.2h-8.5L996,55.7h8.7l15.9,37.1l16.2-37.1H1045z"/>
	<path fill="#8E4B30" d="M1047,41.4c0-3.1,2.4-5.5,5.7-5.5c3.2,0,5.7,2.4,5.7,5.3c0,3.1-2.4,5.6-5.7,5.6
		C1049.5,46.8,1047,44.5,1047,41.4z M1048.5,55.7h8.4V102h-8.4V55.7z"/>
	<path fill="#8E4B30" d="M1068.5,37.2h8.4V102h-8.4V37.2z"/>
</g>
</svg>
