<?xml version="1.0" encoding="utf-8"?>
<!-- Generator: Adobe Illustrator 28.1.0, SVG Export Plug-In . SVG Version: 6.00 Build 0)  -->
<svg version="1.1" id="Layer_1" xmlns="http://www.w3.org/2000/svg" xmlns:xlink="http://www.w3.org/1999/xlink" x="0px" y="0px"
	 width="1006.5px" height="284px" viewBox="0 0 1006.5 284" style="enable-background:new 0 0 1006.5 284;" xml:space="preserve">
<style type="text/css">
	.st0{fill:#58595B;}
	.st1{fill:#124454;}
	.st2{fill:#59595B;}
	.st3{fill:#12758A;}
	.st4{fill:#939598;}
</style>
<g>
	<path class="st0" d="M527.7,111.9c0,47.3-34.1,75.7-90.8,75.7h-64.4v73.8h-16.4V35.9h80.8C493.6,35.9,527.7,64.2,527.7,111.9z
		 M511,111.9c0-39-25.8-61.2-74.1-61.2h-64.4v122.1h64.4C485.2,172.8,511,150.6,511,111.9z"/>
	<path class="st0" d="M636.8,91.9v15.8c-1.3,0-2.6-0.3-3.9-0.3c-37.4,0-59.6,24.8-59.6,66.3v87.6h-16.1V93.2h15.5v36.7
		C583,105.5,605.2,91.9,636.8,91.9z"/>
	<path class="st0" d="M810.6,93.2v168.1h-15.5v-36.1c-11,23.5-33.8,37.4-63.5,37.4c-42.8,0-70.2-24.2-70.2-71.2V93.2h16.1v96.9
		c0,38,20.3,58,55.4,58c38,0,61.5-25.4,61.5-65.4V93.2H810.6z"/>
	<path class="st0" d="M843.5,177.3c0-50.2,35.8-85.4,85-85.4c26.7,0,49.9,10.3,63.8,30.9l-11.9,8.7c-12.2-17.1-30.9-25.1-51.9-25.1
		c-39.6,0-68.6,28.3-68.6,70.9s29,70.9,68.6,70.9c20.9,0,39.6-8.1,51.9-25.1l11.9,8.7c-13.8,20.3-37,30.9-63.8,30.9
		C879.2,262.6,843.5,227.2,843.5,177.3z"/>
</g>
<g>
	<path class="st1" d="M257.6,144.5c0,0.3,0.1,0.5,0.1,0.8C257.7,145.1,257.7,144.8,257.6,144.5z"/>
	<path class="st1" d="M257.9,146.3c0,0.2,0.1,0.5,0.1,0.7C258,146.8,258,146.5,257.9,146.3z"/>
	<path class="st1" d="M255,130.8c0.1,0.4,0.2,0.7,0.2,1.1C255.2,131.5,255.1,131.1,255,130.8z"/>
	<path class="st1" d="M258.5,150.3c0,0.2,0.1,0.5,0.1,0.7C258.6,150.7,258.5,150.5,258.5,150.3z"/>
	<path class="st1" d="M257.4,142.8c0,0.3,0.1,0.5,0.1,0.8C257.5,143.3,257.4,143.1,257.4,142.8z"/>
	<path class="st1" d="M255.4,132.5c0.1,0.4,0.2,0.7,0.2,1.1C255.6,133.2,255.5,132.8,255.4,132.5z"/>
	<path class="st1" d="M255.7,134.1c0.1,0.7,0.3,1.4,0.4,2.1C256,135.4,255.9,134.7,255.7,134.1z"/>
	<path class="st1" d="M256.9,140.3c0.1,0.4,0.2,0.9,0.2,1.3C257.1,141.2,257,140.8,256.9,140.3z"/>
	<path class="st1" d="M256.6,138.6c0.1,0.3,0.1,0.6,0.2,1C256.7,139.2,256.7,138.9,256.6,138.6z"/>
	<path class="st1" d="M256.3,136.8c0.1,0.3,0.1,0.7,0.2,1C256.4,137.5,256.3,137.1,256.3,136.8z"/>
	<path class="st1" d="M258.3,148.6c0,0.2,0.1,0.4,0.1,0.6C258.3,149,258.3,148.8,258.3,148.6z"/>
	<path class="st1" d="M259.8,163.9c0,0.2,0,0.3,0,0.5C259.8,164.2,259.8,164.1,259.8,163.9z"/>
	<path class="st1" d="M258.7,152c0,0.2,0.1,0.4,0.1,0.7C258.8,152.4,258.8,152.2,258.7,152z"/>
	<path class="st1" d="M259.7,162.4c0,0.2,0,0.3,0,0.5C259.7,162.8,259.7,162.6,259.7,162.4z"/>
	<path class="st1" d="M259.8,165.6c0,0.1,0,0.1,0,0.2C259.8,165.7,259.8,165.6,259.8,165.6z"/>
	<path class="st1" d="M53.2,141l41-41c22.7-22.7,59.4-22.7,82.1,0l20.6,20.6l50-19.2c0.5,1.5,1.1,3.2,1.6,4.9
		c-3.1-9.6-6.3-17-8.9-19.6l-64.8-64.8c-21.3-21.3-56-21.3-77.3,0L16,103.3c-21.3,21.3-21.3,55.8,0,77.1l6.9,6.9l55.4-21.3L53.2,141
		z"/>
	<path class="st1" d="M259.6,161c0,0.1,0,0.2,0,0.3C259.6,161.2,259.6,161.1,259.6,161z"/>
	<path class="st1" d="M259.2,155.8c0,0.2,0,0.4,0.1,0.6C259.2,156.2,259.2,156,259.2,155.8z"/>
	<path class="st1" d="M259.5,159c0,0.2,0,0.3,0,0.5C259.5,159.3,259.5,159.2,259.5,159z"/>
	<path class="st1" d="M259,153.8c0,0.1,0,0.3,0.1,0.4C259,154.1,259,154,259,153.8z"/>
	<path class="st1" d="M259.3,157.4c0,0.2,0,0.4,0.1,0.6C259.4,157.8,259.3,157.6,259.3,157.4z"/>
	<path class="st1" d="M250.2,111.6c0.1,0.4,0.3,0.9,0.4,1.3C250.5,112.5,250.3,112,250.2,111.6z"/>
	<path class="st1" d="M259.2,174.6C259.2,174.6,259.2,174.6,259.2,174.6C259.2,174.6,259.2,174.6,259.2,174.6z"/>
	<path class="st1" d="M259,175.6c0,0.1,0,0.2-0.1,0.3C259,175.7,259,175.6,259,175.6z"/>
	<path class="st1" d="M254,126.3c0.3,1.3,0.6,2.6,0.9,3.9C254.6,128.9,254.3,127.6,254,126.3z"/>
	<path class="st1" d="M258.2,178.1c0,0,0,0.1-0.1,0.1C258.1,178.2,258.1,178.2,258.2,178.1z"/>
	<path class="st1" d="M258.8,176.4c0,0.1-0.1,0.2-0.1,0.3C258.7,176.6,258.8,176.5,258.8,176.4z"/>
	<path class="st1" d="M258.5,177.3c0,0.1,0,0.1-0.1,0.2C258.5,177.4,258.5,177.3,258.5,177.3z"/>
	<path class="st1" d="M259.8,168.4c0,0.1,0,0.3,0,0.4C259.8,168.6,259.8,168.5,259.8,168.4z"/>
	<path class="st1" d="M259.7,169.7c0,0.1,0,0.2,0,0.3C259.7,169.9,259.7,169.8,259.7,169.7z"/>
	<path class="st1" d="M259.6,172.3c0,0.1,0,0.2,0,0.3C259.5,172.5,259.5,172.4,259.6,172.3z"/>
	<path class="st1" d="M259.7,171.1c0,0.1,0,0.1,0,0.2C259.6,171.3,259.6,171.2,259.7,171.1z"/>
	<path class="st1" d="M259.4,173.4c0,0.1,0,0.2,0,0.3C259.4,173.6,259.4,173.5,259.4,173.4z"/>
	<path class="st1" d="M251.8,117.2c0.1,0.4,0.2,0.9,0.3,1.3C252,118.1,251.9,117.6,251.8,117.2z"/>
	<path class="st1" d="M252.2,118.8c0.4,1.4,0.7,2.8,1.1,4.2C252.9,121.5,252.5,120.1,252.2,118.8z"/>
	<path class="st1" d="M253.3,123.1c0.1,0.4,0.2,0.8,0.3,1.3C253.5,123.9,253.4,123.5,253.3,123.1z"/>
	<path class="st1" d="M253.7,124.7c0.1,0.4,0.2,0.8,0.3,1.2C253.9,125.5,253.8,125.1,253.7,124.7z"/>
	<path class="st1" d="M248.6,106.3c0.5,1.7,1.1,3.4,1.6,5.2C249.6,109.7,249.1,107.9,248.6,106.3z"/>
	<path class="st1" d="M257.5,179.3c0,0.1-0.1,0.1-0.1,0.2C257.4,179.4,257.4,179.4,257.5,179.3z"/>
	<path class="st1" d="M259.8,167.4c0-0.1,0-0.3,0-0.4C259.8,167.2,259.8,167.3,259.8,167.4z"/>
	<path class="st1" d="M257.8,178.8c0,0.1-0.1,0.1-0.1,0.2C257.8,178.9,257.8,178.8,257.8,178.8z"/>
	<path class="st1" d="M250.6,112.9c0.4,1.4,0.8,2.7,1.1,4.2C251.4,115.7,251,114.3,250.6,112.9z"/>
</g>
<path class="st2" d="M196.9,120.5l20.4,20.4l-41,41c-22.7,22.7-59.5,22.7-82.1,0l-15.9-15.9l-55.4,21.3l63.4,63.4
	c27.6,27.6,72.3,27.6,99.8,0L257,180c7.5-7.5-1.2-53.8-10-78.6L196.9,120.5z"/>
<g>
	<path class="st3" d="M136.2,59.8l0.3,0.3h0.1L98.7,20.6L59.8,59.4C81,38.6,115.1,38.7,136.2,59.8z"/>
	<path class="st3" d="M256.6,180.3L97.8,21.5l0,0c21.2-21.2,55.5-21.2,76.7,0l82.1,82.1C277.8,124.7,277.8,159.1,256.6,180.3
		L256.6,180.3z"/>
</g>
<g>
	<path class="st4" d="M136.4,224.2l-0.3-0.3h-0.1l37.9,39.5l38.9-38.8C191.5,245.4,157.4,245.3,136.4,224.2z"/>
	<path class="st4" d="M15.9,103.7l158.8,158.8l0,0c-21.2,21.2-55.5,21.2-76.7,0l-82.1-82.1C-5.3,159.3-5.3,124.9,15.9,103.7
		L15.9,103.7z"/>
</g>
<g>
</g>
<g>
</g>
<g>
</g>
<g>
</g>
<g>
</g>
<g>
</g>
</svg>
