<?xml version="1.0" encoding="utf-8"?>
<!-- Generator: Adobe Illustrator 29.2.1, SVG Export Plug-In . SVG Version: 9.03 Build 55982)  -->
<svg version="1.1" baseProfile="tiny" id="Camada_1"
	 xmlns="http://www.w3.org/2000/svg" xmlns:xlink="http://www.w3.org/1999/xlink" x="0px" y="0px" viewBox="0 0 1049.7 188"
	 overflow="visible" xml:space="preserve">
<g>
	<path fill="#BBC7DF" d="M129.8,145.7h-13c-5.6,0-10.6-3.3-12.8-8.4L56.7,27.8c-4-9.2,2.8-19.5,12.8-19.5h13
		c5.6,0,10.6,3.3,12.8,8.4l47.3,109.5C146.6,135.4,139.9,145.7,129.8,145.7z"/>
</g>
<g>
	<path fill="#778FBE" d="M112.8,145.7h-13c-5.6,0-10.6-3.3-12.8-8.4L39.6,27.8c-4-9.2,2.8-19.5,12.8-19.5h13
		c5.6,0,10.6,3.3,12.8,8.4l47.3,109.5C129.6,135.4,122.8,145.7,112.8,145.7z"/>
</g>
<g>
	<path fill="#575756" d="M271,73.2v71.7h-10.4v-20.1c-7.1,13-21,21-40.7,21c-25.3,0-40.7-13-40.7-32.3c0-17.1,10.8-31.6,42.2-31.6
		h38.7v-9.1c0-21-11.5-32.3-33.6-32.3c-15.6,0-29.7,5.8-39,14.3l-5.4-7.8c11.3-10,27.7-16,45.2-16C255.4,31,271,45.3,271,73.2z
		 M260.2,111.5V90.3h-38.5c-23.4,0-31.6,9.7-31.6,22.7c0,14.7,11.5,23.8,31.4,23.8C240.5,136.8,253.7,127.7,260.2,111.5z"/>
	<path fill="#575756" d="M291.7,88.3c0-33.8,24-57.4,57.1-57.4c18,0,33.6,6.9,42.9,20.8l-8,5.8c-8.2-11.5-20.8-16.9-34.9-16.9
		c-26.6,0-46.1,19-46.1,47.6s19.5,47.6,46.1,47.6c14.1,0,26.6-5.4,34.9-16.9l8,5.8c-9.3,13.6-24.9,20.8-42.9,20.8
		C315.7,145.7,291.7,121.9,291.7,88.3z"/>
	<path fill="#575756" d="M472,137.7c-5.6,5.4-14.7,8-23.2,8c-19.9,0-30.7-11.7-30.7-30.7V41.1h-20.8v-9.3h20.8V7.2h10.8v24.7h35.9
		v9.3h-35.9v72.7c0,14.5,7.1,22.5,21,22.5c6.7,0,13-2.2,17.5-6.3L472,137.7z"/>
	<path fill="#575756" d="M473.1,88.3c0-33.6,24-57.4,56.5-57.4s56.5,23.8,56.5,57.4s-24,57.4-56.5,57.4S473.1,121.9,473.1,88.3z
		 M575.1,88.3c0-28.4-19.5-47.6-45.5-47.6S484.1,60,484.1,88.3c0,28.4,19.5,47.6,45.5,47.6C555.6,136,575.1,116.7,575.1,88.3z"/>
</g>
<g>
	<path fill="#3D5EA3" d="M8.1,123.3c0-11.2,9.1-20.3,20.3-20.3s20.3,9.1,20.3,20.3s-9.1,20.3-20.3,20.3S8.1,134.5,8.1,123.3"/>
</g>
<g>
	<path fill="#3D5EA3" d="M95.7,145.7h-13c-5.6,0-10.6-3.3-12.8-8.4L22.5,27.8c-4-9.2,2.8-19.5,12.8-19.5h13c5.6,0,10.6,3.3,12.8,8.4
		l47.3,109.5C112.5,135.4,105.8,145.7,95.7,145.7z"/>
</g>
<g>
	<path fill="#3C5EA2" d="M624.3,94.6l3.1-6.5c4.3,3.9,11.8,6.8,19.3,6.8c10.1,0,14.4-3.9,14.4-9c0-14.3-35.3-5.3-35.3-26.9
		c0-9,7-16.7,22.3-16.7c6.8,0,13.9,1.8,18.8,5.2l-2.8,6.7c-5.1-3.3-10.8-4.8-16-4.8c-9.9,0-14.2,4.2-14.2,9.3
		c0,14.3,35.3,5.3,35.3,26.8c0,8.9-7.2,16.6-22.6,16.6C637.7,101.9,628.9,98.9,624.3,94.6z"/>
	<path fill="#3C5EA2" d="M715.8,81.9H680c1,7.8,7.3,12.9,16,12.9c5.2,0,9.5-1.8,12.8-5.3l4.4,5.2c-4,4.7-10.1,7.2-17.4,7.2
		c-14.3,0-23.8-9.4-23.8-22.6c0-13.1,9.4-22.5,22.2-22.5S716,65.8,716,79.4C716,80.1,715.9,81.1,715.8,81.9z M680,76.1h28.3
		c-0.8-7.4-6.4-12.7-14.2-12.7C686.5,63.4,680.8,68.6,680,76.1z"/>
	<path fill="#3C5EA2" d="M765.1,57.1v38.2c0,15.6-7.9,22.7-22.9,22.7c-8.1,0-16.3-2.3-21.1-6.6l3.8-6.2c4.1,3.5,10.5,5.8,17,5.8
		c10.4,0,15.2-4.8,15.2-14.8v-3.5c-3.8,4.6-9.6,6.8-15.9,6.8c-12.8,0-22.4-8.7-22.4-21.4c0-12.8,9.7-21.3,22.4-21.3
		c6.6,0,12.6,2.4,16.3,7.3v-6.8H765.1z M757.3,78c0-8.6-6.3-14.3-15.2-14.3c-8.9,0-15.3,5.8-15.3,14.3c0,8.5,6.3,14.4,15.3,14.4
		C751,92.4,757.3,86.5,757.3,78z"/>
	<path fill="#3C5EA2" d="M817.4,57.1v44.2h-7.6v-6.7c-3.3,4.6-8.8,7.2-15,7.2c-11.4,0-19-6.3-19-19.3V57.1h8v24.5
		c0,8.7,4.3,13,11.9,13c8.3,0,13.7-5.2,13.7-14.7V57.1H817.4z"/>
	<path fill="#3C5EA2" d="M852.2,56.7v7.8c-0.7-0.1-1.2-0.1-1.8-0.1c-8.6,0-13.9,5.3-13.9,14.9v22h-8V57.1h7.7v7.4
		C839,59.3,844.5,56.7,852.2,56.7z"/>
	<path fill="#3C5EA2" d="M892.8,74.6v26.7h-7.6v-5.8c-2.7,4-7.6,6.3-14.5,6.3c-10,0-16.3-5.3-16.3-13c0-7.1,4.6-12.9,17.8-12.9h12.7
		v-1.6c0-6.8-3.9-10.7-11.8-10.7c-5.3,0-10.6,1.8-14,4.8l-3.3-6c4.6-3.7,11.2-5.7,18.3-5.7C886,56.7,892.8,62.5,892.8,74.6z
		 M884.8,87.8v-6.2h-12.3c-7.9,0-10.2,3.1-10.2,6.8c0,4.4,3.7,7.2,9.8,7.2C878.1,95.6,882.8,92.9,884.8,87.8z"/>
	<path fill="#3C5EA2" d="M945.4,75.8v25.4h-8V76.8c0-8.7-4.3-12.9-11.9-12.9c-8.5,0-14,5.1-14,14.7v22.8h-8V57.1h7.7v6.7
		c3.3-4.5,8.9-7.1,15.9-7.1C937.8,56.7,945.4,62.8,945.4,75.8z"/>
	<path fill="#3C5EA2" d="M987.5,88.4l6.1,3.8c-3.5,6.2-10,9.5-17.8,9.5l-1,3.7c4.8,0.5,7.3,3.3,7.3,6.9c0,4.7-4.1,7.6-10.3,7.6
		c-2.9,0-5.3-0.6-7.4-1.8l1.8-4.1c1.8,1,3.6,1.4,5.7,1.4c3.2,0,4.7-1.2,4.7-3.3c0-1.9-1.4-3.3-4.8-3.3h-2.2l1.9-7.4
		c-11.3-1.8-19-10.5-19-22.3c0-13.2,9.8-22.5,23.3-22.5c7.9,0,14.5,3.3,18,9.4l-6.1,3.9c-2.8-4.3-7.2-6.3-12-6.3
		c-8.7,0-15.2,6.1-15.2,15.5c0,9.6,6.5,15.6,15.2,15.6C980.4,94.8,984.7,92.8,987.5,88.4z"/>
	<path fill="#3C5EA2" d="M1034.8,74.6v26.7h-7.6v-5.8c-2.7,4-7.6,6.3-14.5,6.3c-10,0-16.3-5.3-16.3-13c0-7.1,4.6-12.9,17.8-12.9
		h12.7v-1.6c0-6.8-3.9-10.7-11.8-10.7c-5.3,0-10.6,1.8-14,4.8l-3.3-6c4.6-3.7,11.2-5.7,18.3-5.7C1028,56.7,1034.8,62.5,1034.8,74.6z
		 M1026.8,87.8v-6.2h-12.3c-7.9,0-10.2,3.1-10.2,6.8c0,4.4,3.7,7.2,9.8,7.2C1020,95.6,1024.8,92.9,1026.8,87.8z"/>
</g>
</svg>
