<?xml version="1.0" encoding="utf-8"?>
<!-- Generator: Adobe Illustrator 28.2.0, SVG Export Plug-In . SVG Version: 6.00 Build 0)  -->
<svg version="1.1" id="Camada_1" xmlns="http://www.w3.org/2000/svg" xmlns:xlink="http://www.w3.org/1999/xlink" x="0px" y="0px"
	 width="491.1px" height="148.4px" viewBox="0 0 491.1 148.4" style="enable-background:new 0 0 491.1 148.4;" xml:space="preserve"
	>
<style type="text/css">
	.st0{fill:#575756;}
	.st1{fill:#E63323;}
	.st2{fill:#AE0F0A;}
	.st3{fill:#9D9D9C;}
</style>
<g>
	<path class="st0" d="M267.8,84.2h8.2v43.9c-10.6,10-25.8,15.1-41.9,15.1c-35.3,0-61.3-25.3-61.3-59.5c0-34.2,26-59.5,61.5-59.5
		c16.9,0,31.8,5.4,42.2,16.1l-5.4,5.7c-10.2-10-22.4-13.9-36.7-13.9c-30.5,0-53.1,22.1-53.1,51.6c0,29.3,22.6,51.6,53.1,51.6
		c12.4,0,23.8-3,33.3-10.7V84.2z"/>
	<path class="st0" d="M296.9,27c0-3.7,3-6.9,6.9-6.9c3.9,0,6.9,3,6.9,6.7c0,3.9-3,6.9-6.9,6.9C299.9,33.7,296.9,30.6,296.9,27z
		 M299.6,54.9h8.4v87.4h-8.4V54.9z"/>
	<path class="st0" d="M407.5,100.7h-75.2c0.8,20.8,16.1,34.8,37,34.8c11.1,0,21.3-4,28-12.2l4.9,5.5c-7.7,9.4-19.8,14.2-33,14.2
		c-26.5,0-45.1-18.4-45.1-44.4c0-26,17.9-44.4,41.9-44.4s41.7,18.1,41.7,44.1C407.6,99,407.5,99.8,407.5,100.7z M332.4,94.1h67
		c-1.2-18.9-14.9-32.5-33.5-32.5S333.8,75,332.4,94.1z"/>
	<path class="st0" d="M477.5,142.4l-30-39l-30,39H408l34.7-45.1l-32.8-42.4h9.5l28.1,36.3l28.1-36.3h9.4l-32.8,42.4l35.2,45.1H477.5
		z"/>
</g>
<rect x="234.2" y="84.2" class="st0" width="41.7" height="7.5"/>
<path class="st1" d="M62.1,21.6L1.4,126.7c-5,8.6,3.8,18.6,13,14.8l52.8-21.7c2.5-1,5.4-1,7.9,0l52.8,21.7c9.2,3.8,17.9-6.2,13-14.8
	L80.2,21.6C76.2,14.6,66.2,14.6,62.1,21.6z"/>
<path class="st2" d="M63.2,61L6.4,128.9c-5.2,6.2,1.4,15.3,9,12.2l51.8-21.3c2.5-1,5.4-1,7.9,0l51.8,21.3c7.5,3.1,14.2-6,9-12.2
	L79.1,61C75,56.1,67.3,56.1,63.2,61z"/>
<path class="st3" d="M70.1,103l-57,34.1c-2.5,1.5-0.6,5.3,2.1,4.2l52-21.4c2.5-1,5.4-1,7.9,0l52,21.4c2.7,1.1,4.6-2.7,2.1-4.2
	l-57-34.1C71.6,102.6,70.7,102.6,70.1,103z"/>
<g>
</g>
<g>
</g>
<g>
</g>
<g>
</g>
<g>
</g>
<g>
</g>
</svg>
