<?xml version="1.0" encoding="utf-8"?>
<!-- Generator: Adobe Illustrator 28.5.0, SVG Export Plug-In . SVG Version: 9.03 Build 54727)  -->
<svg version="1.1" id="Camada_1" xmlns="http://www.w3.org/2000/svg" xmlns:xlink="http://www.w3.org/1999/xlink" x="0px" y="0px"
	 width="1931.9px" height="338.2px" viewBox="0 0 1931.9 338.2" style="enable-background:new 0 0 1931.9 338.2;"
	 xml:space="preserve">
<style type="text/css">
	.Sombra{fill:none;}
	.Cantos_x0020_arredondados_x0020__x002D__x0020_2_x0020_pontos{fill:#FFFFFF;stroke:#000000;stroke-miterlimit:10;}
	.Reflexo_x0020_X_x0020_em_x0020_tempo_x0020_real{fill:none;}
	.Chanfro_x0020_suave{fill:url(#SVGID_1_);}
	.Anoitecer{fill:#FFFFFF;}
	.Foliage_GS{fill:#FFDD00;}
	.Pompadour_GS{fill-rule:evenodd;clip-rule:evenodd;fill:#51AEE2;}
	.st0{fill:#008E7B;}
	.st1{fill:#575756;}
	.st2{fill:#0080B5;}
	.st3{fill:#BDE3F2;}
</style>
<linearGradient id="SVGID_1_" gradientUnits="userSpaceOnUse" x1="668.3073" y1="-252.2493" x2="669.0145" y2="-251.5422">
	<stop  offset="0" style="stop-color:#E6E6EB"/>
	<stop  offset="0.1738" style="stop-color:#E2E2E6"/>
	<stop  offset="0.352" style="stop-color:#D5D4D8"/>
	<stop  offset="0.5323" style="stop-color:#C0BFC2"/>
	<stop  offset="0.7139" style="stop-color:#A4A2A4"/>
	<stop  offset="0.8949" style="stop-color:#828282"/>
	<stop  offset="1" style="stop-color:#6B6E6E"/>
</linearGradient>
<circle class="st0" cx="168.4" cy="169.8" r="168.4"/>
<path class="st1" d="M412.9,248.2l7.4-12.2c15.5,16.1,44.1,28.3,74.4,28.3c45.1,0,65.1-19.6,65.1-44.1
	c0-67.6-140.8-27.1-140.8-110.2c0-31.9,24.5-59.9,79.9-59.9c24.8,0,50.6,7.7,68,20.3l-6.1,13.2c-18.7-12.9-41.5-19-61.8-19
	c-43.8,0-63.5,20.3-63.5,45.1c0,67.6,140.8,27.7,140.8,109.5c0,31.9-25.4,59.6-81.2,59.6C461.6,278.8,429.4,266.2,412.9,248.2z"/>
<path class="st1" d="M601.5,55.3c0-7.1,5.8-13.2,13.2-13.2c7.4,0,13.2,5.8,13.2,12.9c0,7.4-5.8,13.2-13.2,13.2
	C607.3,68.1,601.5,62.3,601.5,55.3z M606.7,109h16.1v168.1h-16.1V109z"/>
<path class="st1" d="M649.1,256.9l7.4-12.9c12.9,11,35.8,20.3,60.6,20.3c35.4,0,49.6-12.6,49.6-31.6c0-49-111.4-12.9-111.4-78.9
	c0-25.4,21.3-46.1,63.8-46.1c21.3,0,44.4,6.4,57.7,16.4l-7.4,12.9c-14.2-10.3-32.5-15.1-50.6-15.1c-32.9,0-47.3,13.5-47.3,31.6
	c0,50.6,111.4,14.8,111.4,78.9c0,27.4-23.5,46.1-66.3,46.1C688.7,278.5,662.3,269.1,649.1,256.9z"/>
<path class="st1" d="M794.1,256.9l7.4-12.9c12.9,11,35.8,20.3,60.6,20.3c35.4,0,49.6-12.6,49.6-31.6c0-49-111.4-12.9-111.4-78.9
	c0-25.4,21.3-46.1,63.8-46.1c21.3,0,44.4,6.4,57.7,16.4l-7.4,12.9c-14.2-10.3-32.5-15.1-50.6-15.1c-32.9,0-47.3,13.5-47.3,31.6
	c0,50.6,111.4,14.8,111.4,78.9c0,27.4-23.5,46.1-66.3,46.1C833.7,278.5,807.3,269.1,794.1,256.9z"/>
<path class="st1" d="M1025,248.2l7.4-12.2c15.5,16.1,44.1,28.3,74.4,28.3c45.1,0,65.1-19.6,65.1-44.1c0-67.6-140.8-27.1-140.8-110.2
	c0-31.9,24.5-59.9,79.9-59.9c24.8,0,50.6,7.7,68,20.3l-6.1,13.2c-18.7-12.9-41.5-19-61.8-19c-43.8,0-63.5,20.3-63.5,45.1
	c0,67.6,140.8,27.7,140.8,109.5c0,31.9-25.4,59.6-81.2,59.6C1073.7,278.8,1041.4,266.2,1025,248.2z"/>
<path class="st1" d="M1346.1,170.6v106.6h-15.5v-30c-10.6,19.3-31.2,31.2-60.6,31.2c-37.7,0-60.6-19.3-60.6-48
	c0-25.4,16.1-47,62.8-47h57.7v-13.5c0-31.2-17.1-48-49.9-48c-23.2,0-44.1,8.7-58,21.3l-8.1-11.6c16.7-14.8,41.2-23.8,67.3-23.8
	C1322.9,107.8,1346.1,129,1346.1,170.6z M1330,227.6V196h-57.3c-34.8,0-47,14.5-47,33.8c0,21.9,17.1,35.4,46.7,35.4
	C1300.7,265.3,1320.3,251.7,1330,227.6z"/>
<path class="st1" d="M1537.5,109v168.1h-15.5v-36.1c-11,23.5-33.8,37.4-63.5,37.4c-42.8,0-70.2-24.2-70.2-71.2V109h16.1V206
	c0,38,20.3,58,55.4,58c38,0,61.5-25.4,61.5-65.4V109H1537.5z M1462.2,81.7h-17.4l44.8-38h23.2L1462.2,81.7z"/>
<path class="st1" d="M1738.2,38.2v239h-15.8v-39.6c-13.2,26.1-38.7,40.9-68.9,40.9c-47.3,0-83.1-35.1-83.1-85.4
	c0-50.6,35.8-85.4,83.1-85.4c30,0,55.1,14.8,68.6,40.3V38.2H1738.2z M1722.1,193.1c0-42.2-29-70.9-67.6-70.9
	c-38.6,0-67.6,28.7-67.6,70.9s29,70.9,67.6,70.9C1693.1,264,1722.1,235.3,1722.1,193.1z"/>
<path class="st1" d="M1931.5,197h-144.6c1.6,39.9,30.9,67,71.2,67c21.3,0,40.9-7.7,53.8-23.5l9.3,10.6c-14.8,18-38,27.4-63.5,27.4
	c-50.9,0-86.6-35.4-86.6-85.4s34.5-85.4,80.5-85.4c46.1,0,80.2,34.8,80.2,84.7C1931.9,193.8,1931.5,195.4,1931.5,197z M1787.2,184.4
	h128.8c-2.3-36.4-28.7-62.5-64.4-62.5C1815.9,121.9,1789.8,147.7,1787.2,184.4z"/>
<path class="st2" d="M168.4,169.8l-3-168.3c1,0,2,0,3,0c92.4,0,168.4,76,168.4,168.4c0,91.6-74.8,167.3-166.4,168.4L168.4,169.8z"/>
<g>
	<circle class="st3" cx="168.4" cy="69.5" r="69.5"/>
	<circle class="st3" cx="168.4" cy="268.7" r="69.5"/>
	<path class="st3" d="M201.1,289.5h-65.4c-20.3,0-36.8-16.5-36.8-36.8v-76.8c0-20.3,16.5-36.8,36.8-36.8h65.4
		c20.3,0,36.8,16.5,36.8,36.8v76.8C237.9,273,221.4,289.5,201.1,289.5z"/>
</g>
</svg>
