<?xml version="1.0" encoding="utf-8"?>
<!-- Generator: Adobe Illustrator 28.5.0, SVG Export Plug-In . SVG Version: 9.03 Build 54727)  -->
<svg version="1.1" id="Camada_1" xmlns="http://www.w3.org/2000/svg" xmlns:xlink="http://www.w3.org/1999/xlink" x="0px" y="0px"
	 width="870.5px" height="302.3px" viewBox="0 0 870.5 302.3" style="enable-background:new 0 0 870.5 302.3;" xml:space="preserve"
	>
<style type="text/css">
	.Sombra{fill:none;}
	.Cantos_x0020_arredondados_x0020__x002D__x0020_2_x0020_pontos{fill:#FFFFFF;stroke:#000000;stroke-miterlimit:10;}
	.Reflexo_x0020_X_x0020_em_x0020_tempo_x0020_real{fill:none;}
	.Chanfro_x0020_suave{fill:url(#SVGID_1_);}
	.Anoitecer{fill:#FFFFFF;}
	.Foliage_GS{fill:#FFDD00;}
	.Pompadour_GS{fill-rule:evenodd;clip-rule:evenodd;fill:#51AEE2;}
	.st0{fill:#575756;}
	.st1{fill:#173B56;}
	.st2{fill:#D7A500;}
	.st3{fill:#FFFFFF;}
</style>
<linearGradient id="SVGID_1_" gradientUnits="userSpaceOnUse" x1="135.954" y1="-270.1807" x2="136.6611" y2="-269.4736">
	<stop  offset="0" style="stop-color:#E6E6EB"/>
	<stop  offset="0.1738" style="stop-color:#E2E2E6"/>
	<stop  offset="0.352" style="stop-color:#D5D4D8"/>
	<stop  offset="0.5323" style="stop-color:#C0BFC2"/>
	<stop  offset="0.7139" style="stop-color:#A4A2A4"/>
	<stop  offset="0.8949" style="stop-color:#828282"/>
	<stop  offset="1" style="stop-color:#6B6E6E"/>
</linearGradient>
<g>
	<path class="st0" d="M367.5,139.5c0-59.4,45.1-103.4,105.7-103.4c28.8,0,54.8,9.3,72.5,28.2l-9.3,9.6
		c-17.5-17.2-38.7-24.2-62.6-24.2c-52.1,0-91.4,38.4-91.4,89.7s39.3,89.7,91.4,89.7c23.9,0,45.1-7.3,62.6-24.5l9.3,9.6
		c-17.8,18.9-43.7,28.5-72.5,28.5C412.6,242.9,367.5,198.9,367.5,139.5z"/>
	<path class="st0" d="M701.6,168.9H570.9c1.5,36.1,28,60.6,64.4,60.6c19.2,0,37-7,48.6-21.3l8.4,9.6c-13.4,16.3-34.4,24.8-57.4,24.8
		c-46,0-78.3-32-78.3-77.2s31.2-77.2,72.8-77.2c41.6,0,72.5,31.5,72.5,76.6C701.9,166,701.6,167.4,701.6,168.9z M571.2,157.5h116.5
		c-2-32.9-25.9-56.5-58.2-56.5C597.1,101,573.5,124.3,571.2,157.5z"/>
	<path class="st0" d="M870.5,25.3v216.1h-14.3v-35.8c-11.9,23.6-34.9,37-62.3,37c-42.8,0-75.1-31.7-75.1-77.2
		c0-45.7,32.3-77.2,75.1-77.2c27.1,0,49.8,13.4,62,36.4V25.3H870.5z M856,165.4c0-38.2-26.2-64.1-61.2-64.1s-61.2,25.9-61.2,64.1
		c0,38.2,26.2,64.1,61.2,64.1S856,203.6,856,165.4z"/>
</g>
<path class="st1" d="M137.8,296.5L6.6,165.3c-7.8-7.8-7.8-20.5,0-28.3L137.8,5.9c7.8-7.8,20.5-7.8,28.3,0L297.2,137
	c7.8,7.8,7.8,20.5,0,28.3L166,296.5C158.2,304.3,145.6,304.3,137.8,296.5z"/>
<path class="st2" d="M142.2,242.5L10.1,168.4c-13.5-7.6-13.5-26.9,0-34.5l132.1-74.1c6-3.4,13.3-3.4,19.3,0l132.1,74.1
	c13.5,7.6,13.5,26.9,0,34.5l-132.1,74.1C155.6,245.9,148.2,245.9,142.2,242.5z"/>
<path class="st3" d="M137.8,222.6l-57.3-57.3c-7.8-7.8-7.8-20.5,0-28.3l57.3-57.3c7.8-7.8,20.5-7.8,28.3,0l57.3,57.3
	c7.8,7.8,7.8,20.5,0,28.3L166,222.6C158.2,230.4,145.6,230.4,137.8,222.6z"/>
</svg>
