<?xml version="1.0" encoding="utf-8"?>
<!-- Generator: Adobe Illustrator 28.5.0, SVG Export Plug-In . SVG Version: 9.03 Build 54727)  -->
<svg version="1.1" id="Camada_1" xmlns="http://www.w3.org/2000/svg" xmlns:xlink="http://www.w3.org/1999/xlink" x="0px" y="0px"
	 width="854.5px" height="263.5px" viewBox="0 0 854.5 263.5" style="enable-background:new 0 0 854.5 263.5;" xml:space="preserve"
	>
<style type="text/css">
	.st0{enable-background:new    ;}
	.st1{fill:#575756;}
	.st2{fill-rule:evenodd;clip-rule:evenodd;fill:#E30613;}
	.st3{fill:#621115;}
	.st4{fill:#E30613;}
	.st5{fill-rule:evenodd;clip-rule:evenodd;fill:#9B1B2B;}
</style>
<g class="st0">
	<path class="st1" d="M411.7,236.3c-15.3,0-29.5-2.6-42.5-7.7c-13-5.1-24.3-12.4-33.9-21.7c-9.6-9.3-17-20.2-22.3-32.8
		s-7.9-26.3-7.9-41.2c0-14.9,2.6-28.7,7.9-41.2s12.7-23.4,22.4-32.8c9.7-9.3,21-16.5,33.9-21.7c12.9-5.1,27.1-7.7,42.7-7.7
		c14.8,0,28.4,2.3,41.1,7c12.6,4.7,23.4,11.6,32.3,21l-9.3,9.9c-8.9-8.7-18.7-14.9-29.3-18.6c-10.6-3.7-22.1-5.5-34.5-5.5
		c-13.2,0-25.4,2.2-36.7,6.7c-11.3,4.5-21.1,10.8-29.4,18.9c-8.3,8.2-14.8,17.7-19.4,28.5c-4.6,10.9-6.8,22.7-6.8,35.5
		s2.3,24.7,6.8,35.5c4.6,10.9,11,20.4,19.4,28.5c8.3,8.2,18.1,14.5,29.4,18.9c11.3,4.5,23.5,6.7,36.7,6.7c12,0,23.4-1.8,34.2-5.5
		c10.8-3.7,20.6-9.8,29.6-18.3l8.4,11.4c-9.1,8.7-20,15.3-32.8,19.7C439,234.1,425.7,236.3,411.7,236.3z M470.2,208.6v-74.8h14.3
		V210L470.2,208.6z"/>
</g>
<g class="st0">
	<path class="st1" d="M588.6,236c-14.2,0-26.9-3.2-38.3-9.8c-11.4-6.5-20.3-15.6-26.9-27.2c-6.6-11.6-9.9-25-9.9-40.2
		c0-15.3,3.3-28.8,9.9-40.3c6.6-11.5,15.6-20.6,26.9-27.1c11.4-6.5,24.1-9.8,38.3-9.8c13.4,0,25.5,3.1,36.3,9.3
		c10.8,6.2,19.3,15,25.6,26.5c6.3,11.5,9.5,25.2,9.5,41.4c0,15.7-3.1,29.4-9.3,41.1c-6.2,11.6-14.7,20.6-25.5,26.8
		C614.4,232.9,602.2,236,588.6,236z M589.5,222.9c11.6,0,22.1-2.7,31.3-8c9.2-5.3,16.5-12.9,21.8-22.6c5.3-9.7,8-20.9,8-33.5
		c0-12.8-2.7-24-8-33.6c-5.3-9.6-12.6-17.1-21.8-22.4c-9.2-5.3-19.7-8-31.3-8c-11.6,0-22.1,2.7-31.3,8c-9.2,5.3-16.5,12.8-21.8,22.4
		c-5.3,9.6-8,20.8-8,33.6c0,12.6,2.7,23.8,8,33.5c5.3,9.7,12.6,17.2,21.8,22.6C567.4,220.2,577.8,222.9,589.5,222.9z M650.9,234.8
		V185l2.6-26.5l-2.9-26.5V18.7h14.6v216.1H650.9z"/>
</g>
<g class="st0">
	<path class="st1" d="M773.3,236c-15.3,0-28.9-3.3-40.6-9.9c-11.7-6.6-21-15.7-27.7-27.4c-6.7-11.6-10-24.9-10-39.9
		c0-15.1,3.2-28.5,9.5-40c6.3-11.5,15-20.6,26.1-27.2c11.1-6.6,23.5-9.9,37.3-9.9c13.8,0,26.2,3.2,37.1,9.6
		c11,6.4,19.6,15.4,25.9,26.9c6.3,11.6,9.5,24.9,9.5,40c0,0.6,0,1.2-0.1,1.9c-0.1,0.7-0.1,1.4-0.1,2.2H705.7v-11.4h126.4l-5.8,5.5
		c0.2-11.8-2.3-22.5-7.4-31.9c-5.1-9.4-12.1-16.8-20.8-22.1c-8.7-5.3-18.8-8-30.3-8c-11.3,0-21.3,2.7-30.1,8
		c-8.8,5.3-15.8,12.7-20.8,22.1c-5.1,9.4-7.6,20.1-7.6,32.2v2.6c0,12.4,2.8,23.4,8.3,33.1c5.5,9.6,13.1,17.1,22.9,22.4
		c9.7,5.3,20.8,8,33.2,8c9.7,0,18.8-1.7,27.2-5.2c8.4-3.5,15.6-8.8,21.4-16l8.4,9.6c-6.6,8.2-14.9,14.3-24.9,18.5
		C795.8,233.9,784.9,236,773.3,236z"/>
</g>
<rect x="404.4" y="132.9" class="st1" width="80.1" height="13.2"/>
<g>
	<path class="st2" d="M1.2,228.2c-2.1-28.4-0.1-34.1,31.5-95.2C53.4,92.7,6.9,74.6,1.9,47.4c-6.5-35.6,46.9,6.1,46.9,6.1l135.9,68.2
		l-56.6,62.8L1.2,228.2z"/>
	<path class="st3" d="M15.9,196l165-95.2c15.3-8.8,34.8-3.6,43.6,11.7l2.9,5c8.8,15.3,3.6,34.8-11.7,43.6l-165,95.2
		c-15.3,8.8-34.8,3.6-43.6-11.7l-2.9-5C-4.5,224.4,0.7,204.8,15.9,196z"/>
	<path class="st4" d="M180.9,164l-165-95.2C0.6,59.9-4.6,40.4,4.2,25.2l2.9-5C15.9,4.9,35.4-0.3,50.7,8.5l165,95.2
		c15.3,8.8,20.5,28.3,11.7,43.6l-2.9,5C215.6,167.6,196.1,172.8,180.9,164z"/>
	<path class="st5" d="M230.6,131.6c0-3.3-0.6-6.6-1.6-9.8l0,0c-0.1-0.4-0.3-0.9-0.4-1.3c0-0.1,0-0.3-0.1-0.4c-0.1-0.3-0.3-0.7-0.4-1
		c0-0.2-0.2-0.5-0.3-0.7s-0.2-0.5-0.3-0.7c-0.2-0.3-0.3-0.6-0.5-1c0-0.2-0.2-0.3-0.2-0.5c-0.2-0.4-0.4-0.8-0.6-1.2
		c0-0.1-0.1-0.2-0.2-0.3c-0.2-0.4-0.5-0.8-0.8-1.2c0,0-0.1-0.2-0.2-0.3c-0.3-0.4-0.5-0.8-0.8-1.2c0,0-0.1-0.2-0.2-0.3
		c-0.3-0.4-0.5-0.7-0.8-1.1c0-0.1-0.2-0.2-0.3-0.4c-0.2-0.3-0.5-0.6-0.8-0.9c-0.1-0.2-0.3-0.3-0.4-0.5c-0.2-0.2-0.4-0.5-0.7-0.7
		c-0.2-0.2-0.4-0.4-0.6-0.6c-0.2-0.2-0.4-0.4-0.6-0.5c-0.2-0.2-0.5-0.5-0.7-0.7c-0.1-0.1-0.3-0.3-0.4-0.4c-0.3-0.3-0.6-0.5-0.9-0.8
		c-0.1,0-0.2-0.2-0.3-0.3c-0.4-0.3-0.7-0.6-1.1-0.8c0,0-0.2-0.1-0.3-0.2c-0.4-0.3-0.8-0.6-1.2-0.8c0,0-0.1,0-0.2-0.1
		c-0.4-0.3-0.8-0.5-1.3-0.8c-10.4-6.1-23.7-6.6-34.9,0l-52.2,30.1l52.2,30.1c11.2,6.5,24.5,6,34.9,0c0.4-0.2,0.8-0.5,1.3-0.8
		c0,0,0.2,0,0.2-0.2c0.4-0.3,0.8-0.5,1.2-0.8c0,0,0.2-0.1,0.3-0.2c0.4-0.3,0.7-0.5,1.1-0.8c0.1,0,0.2-0.2,0.3-0.3
		c0.3-0.3,0.6-0.5,0.9-0.8c0.1-0.1,0.3-0.3,0.4-0.4c0.3-0.2,0.5-0.5,0.7-0.7s0.4-0.4,0.6-0.5c0.2-0.2,0.4-0.4,0.6-0.6
		c0.2-0.2,0.4-0.5,0.7-0.7c0.1-0.2,0.3-0.3,0.4-0.5c0.3-0.3,0.5-0.6,0.7-0.9c0-0.1,0.2-0.2,0.3-0.4c0.3-0.3,0.5-0.7,0.8-1
		c0,0,0.1-0.2,0.2-0.3c0.3-0.4,0.5-0.8,0.8-1.2c0,0,0.1-0.2,0.2-0.3c0.3-0.4,0.5-0.8,0.8-1.2c0-0.1,0.1-0.2,0.2-0.3
		c0.2-0.4,0.4-0.8,0.6-1.2c0-0.2,0.2-0.3,0.2-0.5c0.2-0.3,0.3-0.6,0.5-1c0.1-0.2,0.2-0.5,0.3-0.7c0-0.2,0.2-0.5,0.3-0.7
		c0.1-0.3,0.3-0.7,0.4-1c0-0.1,0-0.2,0.1-0.4c0.2-0.4,0.3-0.9,0.5-1.3l0,0c1-3.2,1.6-6.4,1.6-9.8c0-0.3,0-0.5,0-0.8s0-0.5,0-0.8
		V131.6z"/>
</g>
</svg>
