<?xml version="1.0" encoding="utf-8"?>
<!-- Generator: Adobe Illustrator 28.5.0, SVG Export Plug-In . SVG Version: 9.03 Build 54727)  -->
<svg version="1.1" id="Camada_1" xmlns="http://www.w3.org/2000/svg" xmlns:xlink="http://www.w3.org/1999/xlink" x="0px" y="0px"
	 width="1954px" height="315px" viewBox="0 0 1954 315" style="enable-background:new 0 0 1954 315;" xml:space="preserve">
<style type="text/css">
	.Sombra{fill:none;}
	.Cantos_x0020_arredondados_x0020__x002D__x0020_2_x0020_pontos{fill:#FFFFFF;stroke:#000000;stroke-miterlimit:10;}
	.Reflexo_x0020_X_x0020_em_x0020_tempo_x0020_real{fill:none;}
	.Chanfro_x0020_suave{fill:url(#SVGID_1_);}
	.Anoitecer{fill:#FFFFFF;}
	.Foliage_GS{fill:#FFDD00;}
	.Pompadour_GS{fill-rule:evenodd;clip-rule:evenodd;fill:#51AEE2;}
	.st0{fill:#575756;}
	.st1{fill:#1291D0;}
	.st2{fill:#004F9F;}
	.st3{fill:#0F265C;}
</style>
<linearGradient id="SVGID_1_" gradientUnits="userSpaceOnUse" x1="764.7241" y1="-264.3529" x2="765.4312" y2="-263.6458">
	<stop  offset="0" style="stop-color:#E6E6EB"/>
	<stop  offset="0.1738" style="stop-color:#E2E2E6"/>
	<stop  offset="0.352" style="stop-color:#D5D4D8"/>
	<stop  offset="0.5323" style="stop-color:#C0BFC2"/>
	<stop  offset="0.7139" style="stop-color:#A4A2A4"/>
	<stop  offset="0.8949" style="stop-color:#828282"/>
	<stop  offset="1" style="stop-color:#6B6E6E"/>
</linearGradient>
<g>
	<path class="st0" d="M494.9,268c-17.7,0-34.1-3-49.2-8.9c-15-5.9-28.1-14.3-39.2-25.1c-11.1-10.8-19.7-23.4-25.8-37.9
		c-6.1-14.5-9.1-30.4-9.1-47.7c0-17.3,3-33.2,9.1-47.7c6.1-14.5,14.7-27.1,25.9-37.9c11.2-10.8,24.3-19.1,39.2-25.1
		c14.9-5.9,31.4-8.9,49.3-8.9c17.1,0,32.9,2.7,47.5,8.1c14.6,5.4,27.1,13.5,37.4,24.3l-10.8,11.5c-10.3-10.1-21.6-17.3-33.9-21.6
		c-12.2-4.3-25.5-6.4-39.9-6.4c-15.3,0-29.4,2.6-42.4,7.7c-13,5.2-24.4,12.5-34,21.9c-9.7,9.4-17.1,20.4-22.4,33
		c-5.3,12.6-7.9,26.3-7.9,41.1s2.6,28.5,7.9,41.1c5.3,12.6,12.7,23.6,22.4,33c9.7,9.4,21,16.7,34,21.9c13,5.2,27.2,7.7,42.4,7.7
		c13.9,0,27.1-2.1,39.6-6.4c12.5-4.3,23.9-11.3,34.2-21.2l9.8,13.1c-10.6,10.1-23.2,17.7-37.9,22.7C526.5,265.5,511.1,268,494.9,268
		z M562.6,236v-86.6h16.5v88.2L562.6,236z"/>
	<path class="st0" d="M634.8,47.8c-3.8,0-7.1-1.3-9.8-4c-2.7-2.7-4-5.8-4-9.4c0-3.8,1.3-7.1,4-9.8s5.9-4,9.8-4c4,0,7.4,1.3,9.9,3.9
		c2.6,2.6,3.9,5.8,3.9,9.6c0,3.8-1.3,7.1-3.9,9.8C642.2,46.4,638.8,47.8,634.8,47.8z M626.4,266.4V90.5h16.8v175.8H626.4z"/>
	<path class="st0" d="M741.5,267.7c-14.6,0-28.2-2.1-40.9-6.4c-12.7-4.3-22.5-9.7-29.5-16.2l7.7-13.5c6.7,5.8,15.7,10.8,26.9,15
		c11.2,4.2,23.4,6.2,36.4,6.2c18.4,0,31.7-3,39.7-9.1c8.1-6.1,12.1-14,12.1-23.9c0-7.2-2.1-12.9-6.2-17c-4.2-4.2-9.7-7.4-16.7-9.6
		c-7-2.2-14.6-4.1-22.9-5.6c-8.3-1.5-16.6-3.1-24.9-4.9c-8.3-1.8-15.9-4.4-22.9-7.7c-7-3.4-12.5-8-16.7-14
		c-4.2-5.9-6.2-13.9-6.2-23.7c0-9,2.5-17.1,7.4-24.3c4.9-7.2,12.3-13,22.2-17.3c9.9-4.4,22.2-6.6,37-6.6c11,0,22.1,1.6,33.2,4.7
		c11.1,3.1,20.2,7.3,27.1,12.5l-7.7,13.5c-7.4-5.6-15.7-9.7-24.9-12.1c-9.2-2.5-18.5-3.7-28-3.7c-17.1,0-29.6,3.1-37.6,9.4
		c-8,6.3-12,14.1-12,23.6c0,7.4,2.1,13.3,6.2,17.7c4.2,4.4,9.7,7.7,16.7,10.1c7,2.4,14.6,4.3,22.9,5.7c8.3,1.5,16.6,3.1,24.9,4.9
		c8.3,1.8,15.9,4.3,22.9,7.6c7,3.3,12.5,7.7,16.7,13.5c4.2,5.7,6.2,13.4,6.2,23.1c0,9.7-2.6,18.1-7.9,25.3
		c-5.3,7.2-13.1,12.8-23.4,16.8C769.2,265.7,756.5,267.7,741.5,267.7z"/>
	<path class="st0" d="M893,267.7c-14.6,0-28.2-2.1-40.9-6.4c-12.7-4.3-22.5-9.7-29.5-16.2l7.7-13.5c6.7,5.8,15.7,10.8,26.9,15
		c11.2,4.2,23.4,6.2,36.4,6.2c18.4,0,31.7-3,39.7-9.1c8.1-6.1,12.1-14,12.1-23.9c0-7.2-2.1-12.9-6.2-17c-4.2-4.2-9.7-7.4-16.7-9.6
		c-7-2.2-14.6-4.1-22.9-5.6c-8.3-1.5-16.6-3.1-24.9-4.9c-8.3-1.8-15.9-4.4-22.9-7.7c-7-3.4-12.5-8-16.7-14
		c-4.2-5.9-6.2-13.9-6.2-23.7c0-9,2.5-17.1,7.4-24.3c4.9-7.2,12.3-13,22.2-17.3c9.9-4.4,22.2-6.6,37-6.6c11,0,22.1,1.6,33.2,4.7
		c11.1,3.1,20.2,7.3,27.1,12.5l-7.7,13.5c-7.4-5.6-15.7-9.7-24.9-12.1c-9.2-2.5-18.5-3.7-28-3.7c-17.1,0-29.6,3.1-37.6,9.4
		c-8,6.3-12,14.1-12,23.6c0,7.4,2.1,13.3,6.2,17.7c4.2,4.4,9.7,7.7,16.7,10.1c7,2.4,14.6,4.3,22.9,5.7c8.3,1.5,16.6,3.1,24.9,4.9
		c8.3,1.8,15.9,4.3,22.9,7.6c7,3.3,12.5,7.7,16.7,13.5c4.2,5.7,6.2,13.4,6.2,23.1c0,9.7-2.6,18.1-7.9,25.3
		c-5.3,7.2-13.1,12.8-23.4,16.8C920.7,265.7,908,267.7,893,267.7z"/>
	<path class="st0" d="M1100.4,268c-17.5,0-33.7-3-48.7-8.9c-14.9-5.9-28-14.4-39.1-25.3c-11.1-10.9-19.7-23.6-25.8-38.1
		c-6.1-14.5-9.1-30.3-9.1-47.3c0-17.1,3-32.8,9.1-47.3c6.1-14.5,14.7-27.2,25.8-38.1c11.1-10.9,24.1-19.3,39.1-25.3
		c14.9-5.9,31.2-8.9,48.7-8.9s33.7,3,48.7,8.9c14.9,6,27.9,14.3,38.9,25.1c11,10.8,19.6,23.4,25.8,37.9c6.2,14.5,9.3,30.4,9.3,47.7
		c0,17.3-3.1,33.2-9.3,47.7c-6.2,14.5-14.8,27.1-25.8,37.9c-11,10.8-24,19.1-38.9,25.1C1134.2,265.1,1117.9,268,1100.4,268z
		 M1100.4,252.2c15,0,29-2.6,41.8-7.7c12.8-5.2,23.9-12.5,33.3-21.9s16.8-20.4,22.1-33c5.3-12.6,7.9-26.3,7.9-41.1
		c0-15-2.6-28.8-7.9-41.3c-5.3-12.5-12.6-23.4-22.1-32.8c-9.4-9.4-20.5-16.7-33.3-21.9c-12.8-5.2-26.7-7.7-41.8-7.7
		c-15,0-29,2.6-41.8,7.7c-12.8,5.2-24,12.5-33.5,21.9c-9.5,9.4-17,20.4-22.2,32.8c-5.3,12.5-7.9,26.2-7.9,41.3
		c0,14.8,2.6,28.5,7.9,41.1c5.3,12.6,12.7,23.6,22.2,33c9.5,9.4,20.7,16.7,33.5,21.9C1071.4,249.6,1085.4,252.2,1100.4,252.2z"/>
	<path class="st0" d="M1347.7,89.2c14.4,0,26.9,2.8,37.6,8.3c10.7,5.5,19,13.8,24.9,24.9c5.9,11.1,8.9,24.9,8.9,41.3v102.7h-16.8
		V165c0-19.8-5-34.8-15-45.1c-10-10.3-24-15.5-41.9-15.5c-13.7,0-25.6,2.8-35.7,8.4c-10.1,5.6-17.8,13.5-23.1,23.6
		c-5.3,10.1-7.9,22.2-7.9,36.4v93.6h-16.8V90.5h16.2v48.8l-2.4-5.4c5.4-13.9,14.3-24.9,26.6-32.8
		C1314.6,93.2,1329.8,89.2,1347.7,89.2z"/>
	<path class="st0" d="M1466.2,266.4V16.4h16.8v249.9H1466.2z"/>
	<path class="st0" d="M1539.7,47.8c-3.8,0-7.1-1.3-9.8-4c-2.7-2.7-4-5.8-4-9.4c0-3.8,1.3-7.1,4-9.8c2.7-2.7,5.9-4,9.8-4
		c4,0,7.4,1.3,9.9,3.9c2.6,2.6,3.9,5.8,3.9,9.6c0,3.8-1.3,7.1-3.9,9.8C1547.1,46.4,1543.8,47.8,1539.7,47.8z M1531.3,266.4V90.5
		h16.8v175.8H1531.3z"/>
	<path class="st0" d="M1682.5,89.2c14.4,0,26.9,2.8,37.6,8.3c10.7,5.5,19,13.8,24.9,24.9c5.9,11.1,8.9,24.9,8.9,41.3v102.7h-16.8
		V165c0-19.8-5-34.8-15-45.1c-10-10.3-24-15.5-41.9-15.5c-13.7,0-25.6,2.8-35.7,8.4c-10.1,5.6-17.8,13.5-23.1,23.6
		c-5.3,10.1-7.9,22.2-7.9,36.4v93.6h-16.8V90.5h16.2v48.8l-2.4-5.4c5.4-13.9,14.3-24.9,26.6-32.8
		C1649.4,93.2,1664.5,89.2,1682.5,89.2z"/>
	<path class="st0" d="M1876.6,267.7c-17.7,0-33.4-3.8-47-11.5c-13.6-7.6-24.3-18.2-32-31.7c-7.7-13.5-11.6-28.9-11.6-46.1
		c0-17.5,3.6-33,10.9-46.3c7.3-13.4,17.3-23.9,30.1-31.5c12.8-7.6,27.2-11.5,43.1-11.5c15.9,0,30.3,3.7,42.9,11.1
		c12.7,7.4,22.7,17.8,30,31.2c7.3,13.4,10.9,28.8,10.9,46.3c0,0.7-0.1,1.4-0.2,2.2c-0.1,0.8-0.2,1.6-0.2,2.5h-155.3v-13.1h146.2
		l-6.7,6.4c0.2-13.7-2.6-26-8.6-36.9c-6-10.9-14-19.4-24.1-25.6c-10.1-6.2-21.8-9.3-35-9.3c-13,0-24.6,3.1-34.9,9.3
		c-10.2,6.2-18.2,14.7-24.1,25.6c-5.8,10.9-8.8,23.3-8.8,37.2v3c0,14.4,3.2,27.1,9.6,38.2c6.4,11.1,15.2,19.8,26.4,25.9
		c11.2,6.2,24,9.3,38.4,9.3c11.2,0,21.7-2,31.5-6.1s18-10.2,24.8-18.5l9.8,11.1c-7.6,9.4-17.2,16.6-28.8,21.4
		C1902.6,265.3,1890,267.7,1876.6,267.7z"/>
</g>
<rect x="487.3" y="149.4" class="st0" width="91.8" height="16.5"/>
<path class="st1" d="M268.3,219.9V95c0-9.3-5-17.9-13-22.5L147.2,10.1c-8-4.6-18-4.6-26,0L13,72.5C5,77.2,0,85.8,0,95v124.9
	c0,9.3,5,17.9,13,22.5l108.2,62.4c8,4.6,18,4.6,26,0l108.2-62.4C263.4,237.8,268.3,229.2,268.3,219.9z"/>
<path class="st2" d="M202,218.9v-86.6c0-9.3-5-17.9-13-22.5l-75-43.3c-8-4.6-18-4.6-26,0l-75,43.3C5,114.4,0,123,0,132.3v86.6
	c0,9.3,5,17.9,13,22.5l75,43.3c8,4.6,18,4.6,26,0l75-43.3C197,236.7,202,228.2,202,218.9z"/>
<path class="st3" d="M135.7,220.3v-48.3c0-9.3-5-17.9-13-22.5l-41.8-24.2c-8-4.6-18-4.6-26,0L13,149.4c-8,4.6-13,13.2-13,22.5v48.3
	c0,9.3,5,17.9,13,22.5l41.8,24.2c8,4.6,18,4.6,26,0l41.8-24.2C130.7,238.1,135.7,229.5,135.7,220.3z"/>
</svg>
