<?xml version="1.0" encoding="utf-8"?>
<!-- Generator: Adobe Illustrator 28.5.0, SVG Export Plug-In . SVG Version: 9.03 Build 54727)  -->
<svg version="1.1" id="Camada_1" xmlns="http://www.w3.org/2000/svg" xmlns:xlink="http://www.w3.org/1999/xlink" x="0px" y="0px"
	 width="1223.4px" height="188px" viewBox="0 0 1223.4 188" style="enable-background:new 0 0 1223.4 188;" xml:space="preserve">
<style type="text/css">
	.st0{fill:#F6AB6F;}
	.st1{fill:#EF7F3C;}
	.st2{fill:#575756;}
	.st3{fill:#E74E0F;}
</style>
<g>
	<path class="st0" d="M130.7,146.7h-13.2c-5.6,0-10.8-3.4-13-8.5l-48-111c-4-9.3,2.8-19.8,13-19.8h13.2c5.6,0,10.8,3.4,13,8.5
		l48,111C147.7,136.2,140.9,146.7,130.7,146.7z"/>
</g>
<g>
	<path class="st1" d="M113.4,146.7h-13.2c-5.6,0-10.8-3.4-13-8.5l-48-111c-4-9.3,2.8-19.8,13-19.8h13.2c5.6,0,10.8,3.4,13,8.5
		l48,111C130.4,136.2,123.6,146.7,113.4,146.7z"/>
</g>
<g>
	<path class="st2" d="M273.8,73.2v72.6h-10.5v-20.4c-7.2,13.2-21.3,21.3-41.3,21.3c-25.7,0-41.3-13.2-41.3-32.7
		c0-17.3,11-32,42.8-32h39.3v-9.2c0-21.3-11.6-32.7-34-32.7c-15.8,0-30.1,5.9-39.5,14.5l-5.5-7.9c11.4-10.1,28.1-16.2,45.9-16.2
		C258,30.4,273.8,44.9,273.8,73.2z M262.9,112V90.5h-39.1c-23.7,0-32,9.9-32,23c0,14.9,11.6,24.1,31.8,24.1
		C242.9,137.7,256.3,128.5,262.9,112z"/>
	<path class="st2" d="M294.8,88.5c0-34.2,24.4-58.2,57.9-58.2c18.2,0,34,7,43.4,21.1l-8.1,5.9c-8.3-11.6-21.1-17.1-35.3-17.1
		c-27,0-46.7,19.3-46.7,48.3c0,29,19.7,48.3,46.7,48.3c14.3,0,27-5.5,35.3-17.1l8.1,5.9c-9.4,13.8-25.2,21.1-43.4,21.1
		C319.1,146.7,294.8,122.5,294.8,88.5z"/>
	<path class="st2" d="M477.6,138.5c-5.7,5.5-14.9,8.1-23.5,8.1c-20.2,0-31.2-11.8-31.2-31.2V40.7h-21.1v-9.4h21.1v-25h11v25h36.4
		v9.4h-36.4v73.7c0,14.7,7.2,22.8,21.3,22.8c6.8,0,13.2-2.2,17.8-6.4L477.6,138.5z"/>
	<path class="st2" d="M478.7,88.5c0-34,24.4-58.2,57.3-58.2c32.9,0,57.3,24.1,57.3,58.2c0,34-24.4,58.2-57.3,58.2
		C503.1,146.7,478.7,122.5,478.7,88.5z M582,88.5c0-28.7-19.7-48.3-46.1-48.3s-46.1,19.5-46.1,48.3c0,28.7,19.7,48.3,46.1,48.3
		S582,117.3,582,88.5z"/>
</g>
<g>
	<path class="st3" d="M7.3,124c0-11.4,9.2-20.6,20.6-20.6c11.4,0,20.6,9.2,20.6,20.6c0,11.4-9.2,20.6-20.6,20.6
		C16.5,144.5,7.3,135.3,7.3,124"/>
</g>
<g>
	<path class="st3" d="M96.1,146.7H82.9c-5.6,0-10.8-3.4-13-8.5l-48-111c-4-9.3,2.8-19.8,13-19.8h13.2c5.6,0,10.8,3.4,13,8.5l48,111
		C113.2,136.2,106.3,146.7,96.1,146.7z"/>
</g>
<g>
	<path class="st3" d="M632,101.3l28.1-62h8.8l28.2,62h-9.3l-25.1-57h3.5l-25.1,57H632z M644,85.8l2.4-7.1h34.9l2.6,7.1H644z"/>
	<path class="st3" d="M719.6,101.9c-4.5,0-8.6-1-12.2-3c-3.6-2-6.4-4.8-8.5-8.4c-2.1-3.6-3.1-7.8-3.1-12.6c0-4.8,1-9,3.1-12.5
		c2.1-3.6,4.9-6.4,8.5-8.4c3.6-2,7.6-3,12.2-3c4,0,7.5,0.9,10.7,2.7c3.2,1.8,5.7,4.4,7.7,8c1.9,3.5,2.9,8,2.9,13.3
		c0,5.3-0.9,9.7-2.8,13.3c-1.9,3.5-4.4,6.2-7.6,8C727.3,101,723.7,101.9,719.6,101.9z M720.3,94.4c3,0,5.6-0.7,8-2
		c2.4-1.4,4.3-3.3,5.7-5.8c1.4-2.5,2.1-5.4,2.1-8.7c0-3.4-0.7-6.3-2.1-8.7c-1.4-2.4-3.3-4.4-5.7-5.7c-2.4-1.4-5.1-2-8-2
		c-3,0-5.7,0.7-8.1,2c-2.4,1.4-4.3,3.3-5.7,5.7c-1.4,2.5-2.1,5.4-2.1,8.7c0,3.3,0.7,6.2,2.1,8.7c1.4,2.5,3.3,4.4,5.7,5.8
		C714.6,93.8,717.3,94.4,720.3,94.4z M736.3,101.3V88.7l0.5-10.9L736,66.9V35.6h8.5v65.7H736.3z"/>
	<path class="st3" d="M812.6,54c3.8,0,7.1,0.7,10,2.2c2.9,1.5,5.2,3.7,6.8,6.7c1.6,3,2.4,6.8,2.4,11.4v27h-8.5v-26
		c0-4.5-1.1-8-3.2-10.3c-2.1-2.3-5.1-3.5-8.9-3.5c-2.8,0-5.3,0.6-7.4,1.8c-2.1,1.2-3.8,2.9-4.9,5.2s-1.7,5.2-1.7,8.6v24.2h-8.5v-26
		c0-4.5-1-8-3.1-10.3c-2.1-2.3-5.1-3.5-9-3.5c-2.8,0-5.2,0.6-7.4,1.8c-2.1,1.2-3.8,2.9-5,5.2c-1.2,2.3-1.8,5.2-1.8,8.6v24.2h-8.5
		V54.4h8.1v12.5l-1.3-3.2c1.5-3.1,3.7-5.5,6.8-7.2c3.1-1.7,6.6-2.6,10.7-2.6c4.5,0,8.4,1.1,11.6,3.3c3.2,2.2,5.4,5.6,6.4,10.1
		l-3.5-1.4c1.4-3.6,3.9-6.5,7.4-8.7C803.7,55,807.9,54,812.6,54z"/>
	<path class="st3" d="M845,45.4c-1.7,0-3-0.5-4.1-1.6c-1.1-1.1-1.6-2.4-1.6-3.9c0-1.6,0.5-2.9,1.6-4c1.1-1.1,2.5-1.6,4.1-1.6
		c1.7,0,3,0.5,4.1,1.6c1.1,1,1.6,2.3,1.6,3.9c0,1.6-0.5,2.9-1.6,4C848.1,44.8,846.7,45.4,845,45.4z M840.7,101.3V54.4h8.5v46.9
		H840.7z"/>
	<path class="st3" d="M883.7,54c3.8,0,7.2,0.7,10.1,2.2c2.9,1.5,5.2,3.7,6.9,6.7c1.7,3,2.5,6.8,2.5,11.4v27h-8.5v-26
		c0-4.5-1.1-8-3.3-10.3c-2.2-2.3-5.3-3.5-9.3-3.5c-3,0-5.6,0.6-7.9,1.8c-2.2,1.2-4,2.9-5.2,5.2c-1.2,2.3-1.8,5.2-1.8,8.6v24.2h-8.5
		V54.4h8.1v12.7l-1.3-3.4c1.5-3.1,3.9-5.5,7.1-7.2C875.7,54.8,879.5,54,883.7,54z"/>
	<path class="st3" d="M916.4,45.4c-1.7,0-3-0.5-4.1-1.6c-1.1-1.1-1.6-2.4-1.6-3.9c0-1.6,0.5-2.9,1.6-4c1.1-1.1,2.5-1.6,4.1-1.6
		c1.7,0,3,0.5,4.1,1.6c1.1,1,1.6,2.3,1.6,3.9c0,1.6-0.5,2.9-1.6,4C919.5,44.8,918.1,45.4,916.4,45.4z M912.2,101.3V54.4h8.5v46.9
		H912.2z"/>
	<path class="st3" d="M944.8,101.9c-3.9,0-7.6-0.5-11.1-1.6c-3.5-1.1-6.3-2.4-8.3-3.9l3.5-6.7c2,1.4,4.5,2.5,7.4,3.5
		c3,0.9,6,1.4,9,1.4c4,0,6.8-0.6,8.5-1.7c1.7-1.1,2.6-2.7,2.6-4.7c0-1.5-0.5-2.6-1.6-3.5c-1.1-0.8-2.5-1.4-4.2-1.9
		c-1.7-0.4-3.7-0.8-5.8-1.1c-2.1-0.3-4.3-0.7-6.4-1.2c-2.1-0.5-4.1-1.2-5.8-2.1c-1.8-0.9-3.2-2.2-4.3-3.8c-1.1-1.6-1.6-3.8-1.6-6.5
		c0-2.8,0.8-5.3,2.4-7.4c1.6-2.1,3.9-3.8,6.8-4.9c2.9-1.2,6.4-1.7,10.4-1.7c3.1,0,6.2,0.4,9.3,1.1c3.2,0.7,5.7,1.8,7.7,3.1l-3.6,6.7
		c-2.1-1.4-4.3-2.4-6.6-2.9c-2.3-0.5-4.6-0.8-6.9-0.8c-3.7,0-6.5,0.6-8.3,1.8c-1.8,1.2-2.7,2.8-2.7,4.7c0,1.6,0.5,2.8,1.6,3.7
		c1.1,0.9,2.5,1.5,4.3,2c1.7,0.5,3.7,0.9,5.8,1.2c2.1,0.3,4.3,0.7,6.4,1.2c2.1,0.5,4.1,1.2,5.8,2.1c1.7,0.9,3.2,2.1,4.3,3.7
		c1.1,1.6,1.6,3.7,1.6,6.4c0,2.8-0.8,5.3-2.5,7.4c-1.7,2.1-4,3.7-7,4.8C952.6,101.3,949,101.9,944.8,101.9z"/>
	<path class="st3" d="M966.1,61.4v-7H996v7H966.1z M988.9,101.9c-4.7,0-8.4-1.3-11-3.8c-2.6-2.5-3.9-6.2-3.9-10.9v-43h8.5v42.7
		c0,2.5,0.6,4.5,1.9,5.8c1.3,1.4,3.1,2,5.4,2c2.7,0,4.9-0.7,6.6-2.2l2.7,6.1c-1.3,1.1-2.8,1.9-4.6,2.5
		C992.8,101.6,990.9,101.9,988.9,101.9z"/>
	<path class="st3" d="M1003.6,101.3V54.4h8.1v12.8L1011,64c1.3-3.2,3.5-5.7,6.6-7.4c3.1-1.7,6.8-2.6,11.3-2.6v8.2
		c-0.4-0.1-0.7-0.1-1-0.1c-0.3,0-0.6,0-0.9,0c-4.5,0-8.1,1.4-10.8,4.1c-2.7,2.7-4,6.6-4,11.8v23.4H1003.6z"/>
	<path class="st3" d="M1047.2,101.9c-3.5,0-6.5-0.6-9.2-1.8c-2.6-1.2-4.6-2.8-6.1-4.9c-1.4-2.1-2.1-4.5-2.1-7.1
		c0-2.5,0.6-4.8,1.8-6.9c1.2-2.1,3.2-3.7,5.9-5c2.7-1.2,6.5-1.9,11.1-1.9h14.9v6.1H1049c-4.3,0-7.1,0.7-8.6,2.1
		c-1.5,1.4-2.2,3.1-2.2,5.1c0,2.3,0.9,4.1,2.7,5.5c1.8,1.4,4.4,2.1,7.6,2.1c3.2,0,6-0.7,8.4-2.1c2.4-1.4,4.1-3.5,5.2-6.2l1.7,5.8
		c-1.1,2.8-3.1,5-5.9,6.6C1055.1,101.1,1051.5,101.9,1047.2,101.9z M1062.6,101.3v-9.9l-0.4-1.9V72.6c0-3.6-1-6.4-3.1-8.4
		c-2.1-2-5.2-3-9.4-3c-2.8,0-5.5,0.5-8.1,1.4c-2.7,0.9-4.9,2.1-6.7,3.7l-3.5-6.4c2.4-1.9,5.3-3.4,8.7-4.5c3.4-1,7-1.6,10.7-1.6
		c6.4,0,11.4,1.6,14.9,4.7c3.5,3.1,5.2,7.9,5.2,14.3v28.3H1062.6z"/>
	<path class="st3" d="M1072.7,61.4v-7h29.9v7H1072.7z M1095.6,101.9c-4.7,0-8.4-1.3-11-3.8c-2.6-2.5-3.9-6.2-3.9-10.9v-43h8.5v42.7
		c0,2.5,0.6,4.5,1.9,5.8c1.3,1.4,3.1,2,5.4,2c2.7,0,4.9-0.7,6.6-2.2l2.7,6.1c-1.3,1.1-2.8,1.9-4.6,2.5
		C1099.4,101.6,1097.5,101.9,1095.6,101.9z"/>
	<path class="st3" d="M1114.5,45.4c-1.7,0-3-0.5-4.1-1.6c-1.1-1.1-1.6-2.4-1.6-3.9c0-1.6,0.5-2.9,1.6-4c1.1-1.1,2.5-1.6,4.1-1.6
		c1.7,0,3,0.5,4.1,1.6c1.1,1,1.6,2.3,1.6,3.9c0,1.6-0.5,2.9-1.6,4C1117.6,44.8,1116.2,45.4,1114.5,45.4z M1110.2,101.3V54.4h8.5
		v46.9H1110.2z"/>
	<path class="st3" d="M1143,101.3l-20.5-46.9h8.9l18.2,42.5h-4.3l18.6-42.5h8.3l-20.5,46.9H1143z"/>
	<path class="st3" d="M1195.2,101.9c-4.7,0-8.8-1-12.5-3.1c-3.7-2.1-6.6-4.9-8.7-8.5c-2.1-3.6-3.2-7.7-3.2-12.4
		c0-4.7,1.1-8.8,3.2-12.4c2.1-3.6,5-6.4,8.7-8.5c3.7-2.1,7.9-3.1,12.6-3.1c4.7,0,8.8,1,12.5,3.1c3.7,2,6.6,4.9,8.7,8.5
		c2.1,3.6,3.1,7.7,3.1,12.4c0,4.7-1,8.8-3.1,12.4c-2.1,3.6-5,6.4-8.7,8.5C1204,100.8,1199.8,101.9,1195.2,101.9z M1195.2,94.4
		c3,0,5.7-0.7,8.1-2c2.4-1.4,4.3-3.3,5.6-5.8c1.4-2.5,2-5.4,2-8.7c0-3.4-0.7-6.3-2-8.7c-1.4-2.4-3.2-4.4-5.6-5.7
		c-2.4-1.4-5.1-2-8.1-2s-5.7,0.7-8.1,2c-2.4,1.4-4.3,3.3-5.7,5.7c-1.4,2.5-2.1,5.4-2.1,8.7c0,3.3,0.7,6.2,2.1,8.7
		c1.4,2.5,3.3,4.4,5.7,5.8C1189.5,93.8,1192.2,94.4,1195.2,94.4z"/>
</g>
</svg>
