<?xml version="1.0" encoding="utf-8"?>
<!-- Generator: Adobe Illustrator 29.2.1, SVG Export Plug-In . SVG Version: 9.03 Build 55982)  -->
<svg version="1.1" baseProfile="tiny" id="Camada_1"
	 xmlns="http://www.w3.org/2000/svg" xmlns:xlink="http://www.w3.org/1999/xlink" x="0px" y="0px" viewBox="0 0 1302.3 188"
	 overflow="visible" xml:space="preserve">
<g>
	<path fill="#A9ACB5" d="M129.8,145.7h-13c-5.6,0-10.6-3.3-12.8-8.4L56.7,27.8c-4-9.2,2.8-19.5,12.8-19.5h13
		c5.6,0,10.6,3.3,12.8,8.4l47.3,109.5C146.6,135.4,139.9,145.7,129.8,145.7z"/>
</g>
<g>
	<path fill="#646E7B" d="M112.8,145.7h-13c-5.6,0-10.6-3.3-12.8-8.4L39.6,27.8c-4-9.2,2.8-19.5,12.8-19.5h13
		c5.6,0,10.6,3.3,12.8,8.4l47.3,109.5C129.6,135.4,122.8,145.7,112.8,145.7z"/>
</g>
<g>
	<path fill="#575756" d="M271,73.2v71.7h-10.4v-20.1c-7.1,13-21,21-40.7,21c-25.3,0-40.7-13-40.7-32.3c0-17.1,10.8-31.6,42.2-31.6
		h38.7v-9.1c0-21-11.5-32.3-33.6-32.3c-15.6,0-29.7,5.8-39,14.3l-5.4-7.8c11.3-10,27.7-16,45.2-16C255.4,31,271,45.3,271,73.2z
		 M260.2,111.5V90.3h-38.5c-23.4,0-31.6,9.7-31.6,22.7c0,14.7,11.5,23.8,31.4,23.8C240.5,136.8,253.7,127.7,260.2,111.5z"/>
	<path fill="#575756" d="M291.7,88.3c0-33.8,24-57.4,57.1-57.4c18,0,33.6,6.9,42.9,20.8l-8,5.8c-8.2-11.5-20.8-16.9-34.9-16.9
		c-26.6,0-46.1,19-46.1,47.6s19.5,47.6,46.1,47.6c14.1,0,26.6-5.4,34.9-16.9l8,5.8c-9.3,13.6-24.9,20.8-42.9,20.8
		C315.7,145.7,291.7,121.9,291.7,88.3z"/>
	<path fill="#575756" d="M472,137.7c-5.6,5.4-14.7,8-23.2,8c-19.9,0-30.7-11.7-30.7-30.7V41.1h-20.8v-9.3h20.8V7.2h10.8v24.7h35.9
		v9.3h-35.9v72.7c0,14.5,7.1,22.5,21,22.5c6.7,0,13-2.2,17.5-6.3L472,137.7z"/>
	<path fill="#575756" d="M473.1,88.3c0-33.6,24-57.4,56.5-57.4s56.5,23.8,56.5,57.4s-24,57.4-56.5,57.4S473.1,121.9,473.1,88.3z
		 M575.1,88.3c0-28.4-19.5-47.6-45.5-47.6S484.1,60,484.1,88.3c0,28.4,19.5,47.6,45.5,47.6C555.6,136,575.1,116.7,575.1,88.3z"/>
</g>
<g>
	<path fill="#3B4A57" d="M8.1,123.3c0-11.2,9.1-20.3,20.3-20.3s20.3,9.1,20.3,20.3s-9.1,20.3-20.3,20.3S8.1,134.5,8.1,123.3"/>
</g>
<g>
	<path fill="#3B4A57" d="M95.7,145.7h-13c-5.6,0-10.6-3.3-12.8-8.4L22.5,27.8c-4-9.2,2.8-19.5,12.8-19.5h13c5.6,0,10.6,3.3,12.8,8.4
		l47.3,109.5C112.5,135.4,105.8,145.7,95.7,145.7z"/>
</g>
<g>
	<path fill="#3B4A57" d="M674.2,85.2c0,9.7-7.4,15.3-21.7,15.3h-27.1V43.8h25.4c13,0,20.3,5.5,20.3,14.7c0,6.2-3.2,10.5-7.6,12.6
		C670,72.9,674.2,77.6,674.2,85.2z M633.5,50.3v18.1h16.6c8.3,0,13-3.1,13-9.1c0-6-4.7-9.1-13-9.1H633.5z M666,84.5
		c0-6.6-4.9-9.5-13.9-9.5h-18.6v18.9h18.6C661.1,93.9,666,91.1,666,84.5z"/>
	<path fill="#3B4A57" d="M720.2,81.6h-34.8c1,7.5,7,12.6,15.6,12.6c5,0,9.2-1.7,12.4-5.2l4.3,5c-3.9,4.5-9.8,7-16.9,7
		c-13.9,0-23.1-9.2-23.1-22c0-12.7,9.2-21.9,21.5-21.9s21.2,8.9,21.2,22.1C720.3,79.9,720.3,80.9,720.2,81.6z M685.4,76h27.5
		c-0.8-7.2-6.2-12.3-13.8-12.3C691.7,63.7,686.2,68.7,685.4,76z"/>
	<path fill="#3B4A57" d="M767.8,75.8v24.7H760V76.7c0-8.4-4.2-12.6-11.6-12.6c-8.3,0-13.6,4.9-13.6,14.3v22.1h-7.8V57.6h7.5V64
		c3.2-4.4,8.7-6.9,15.5-6.9C760.4,57.2,767.8,63.1,767.8,75.8z"/>
	<path fill="#3B4A57" d="M817.1,81.6h-34.8c1,7.5,7,12.6,15.6,12.6c5,0,9.2-1.7,12.4-5.2l4.3,5c-3.9,4.5-9.8,7-16.9,7
		c-13.9,0-23.1-9.2-23.1-22c0-12.7,9.2-21.9,21.5-21.9c12.4,0,21.2,8.9,21.2,22.1C817.2,79.9,817.1,80.9,817.1,81.6z M782.2,76h27.5
		c-0.8-7.2-6.2-12.3-13.8-12.3C788.6,63.7,783,68.7,782.2,76z"/>
	<path fill="#3B4A57" d="M832.7,53.8v3.7h12.5V64h-12.3v36.5h-7.8V64h-7.3v-6.4h7.3v-3.8c0-8.3,5-13.9,14.2-13.9
		c3.3,0,6.6,0.8,8.7,2.5l-2.3,5.9c-1.6-1.2-3.7-2-6-2C835,46.3,832.7,48.9,832.7,53.8z"/>
	<path fill="#3B4A57" d="M863.8,40.8h9.9l-13.6,10.5h-7.3L863.8,40.8z M855,57.6h7.8v42.9H855V57.6z"/>
	<path fill="#3B4A57" d="M869.6,79c0-12.8,9.5-21.9,22.7-21.9c7.7,0,14.1,3.2,17.5,9.2l-5.9,3.8c-2.8-4.2-7-6.2-11.7-6.2
		c-8.4,0-14.7,5.9-14.7,15.1c0,9.3,6.3,15.1,14.7,15.1c4.7,0,8.9-1.9,11.7-6.2l5.9,3.7c-3.4,6-9.8,9.2-17.5,9.2
		C879,101,869.6,91.8,869.6,79z"/>
	<path fill="#3B4A57" d="M914.4,44.3c0-2.8,2.3-5.1,5.3-5.1c3,0,5.3,2.2,5.3,4.9c0,2.9-2.2,5.2-5.3,5.2
		C916.6,49.3,914.4,47.1,914.4,44.3z M915.7,57.6h7.8v42.9h-7.8V57.6z"/>
	<path fill="#3B4A57" d="M930.3,79c0-12.8,9.5-21.9,22.4-21.9c12.9,0,22.3,9.1,22.3,21.9s-9.4,22-22.3,22
		C939.8,101,930.3,91.8,930.3,79z M967.1,79c0-9.2-6.2-15.1-14.4-15.1s-14.5,5.9-14.5,15.1c0,9.2,6.2,15.1,14.5,15.1
		S967.1,88.2,967.1,79z"/>
	<path fill="#3B4A57" d="M976.2,96l3.2-6.2c3.6,2.6,9.5,4.5,15.1,4.5c7.2,0,10.2-2.2,10.2-5.8c0-9.6-27.1-1.3-27.1-18.4
		c0-7.7,6.9-12.9,17.9-12.9c5.6,0,11.9,1.5,15.6,3.9l-3.3,6.2c-3.9-2.5-8.2-3.4-12.4-3.4c-6.8,0-10.1,2.5-10.1,5.9
		c0,10.1,27.2,1.9,27.2,18.6c0,7.8-7.1,12.7-18.6,12.7C986.9,101,979.8,98.8,976.2,96z"/>
	<path fill="#3B4A57" d="M1031.9,94l3-6.3c4.2,3.8,11.4,6.6,18.7,6.6c9.8,0,14-3.8,14-8.7c0-13.9-34.3-5.1-34.3-26.2
		c0-8.7,6.8-16.2,21.7-16.2c6.6,0,13.5,1.8,18.2,5l-2.7,6.5c-4.9-3.2-10.5-4.6-15.6-4.6c-9.6,0-13.8,4.1-13.8,9
		c0,13.9,34.3,5.2,34.3,26c0,8.7-7,16.1-22,16.1C1044.9,101.1,1036.4,98.2,1031.9,94z"/>
	<path fill="#3B4A57" d="M1078.2,79c0-12.8,9.5-21.9,22.4-21.9c12.9,0,22.3,9.1,22.3,21.9s-9.4,22-22.3,22
		C1087.7,101,1078.2,91.8,1078.2,79z M1115,79c0-9.2-6.2-15.1-14.4-15.1s-14.5,5.9-14.5,15.1c0,9.2,6.2,15.1,14.5,15.1
		S1115,88.2,1115,79z"/>
	<path fill="#3B4A57" d="M1125.6,79c0-12.8,9.5-21.9,22.7-21.9c7.7,0,14.1,3.2,17.5,9.2l-5.9,3.8c-2.8-4.2-7-6.2-11.7-6.2
		c-8.4,0-14.7,5.9-14.7,15.1c0,9.3,6.3,15.1,14.7,15.1c4.7,0,8.9-1.9,11.7-6.2l5.9,3.7c-3.4,6-9.8,9.2-17.5,9.2
		C1135.1,101,1125.6,91.8,1125.6,79z"/>
	<path fill="#3B4A57" d="M1170.4,44.3c0-2.8,2.3-5.1,5.3-5.1c3,0,5.3,2.2,5.3,4.9c0,2.9-2.2,5.2-5.3,5.2
		C1172.7,49.3,1170.4,47.1,1170.4,44.3z M1171.8,57.6h7.8v42.9h-7.8V57.6z"/>
	<path fill="#3B4A57" d="M1224.4,74.6v25.9h-7.4v-5.7c-2.6,3.9-7.4,6.2-14.1,6.2c-9.7,0-15.9-5.2-15.9-12.6
		c0-6.9,4.5-12.6,17.3-12.6h12.3v-1.5c0-6.6-3.8-10.4-11.5-10.4c-5.1,0-10.3,1.8-13.6,4.6l-3.2-5.8c4.5-3.6,10.9-5.5,17.7-5.5
		C1217.7,57.2,1224.4,62.8,1224.4,74.6z M1216.6,87.4v-6h-12c-7.7,0-9.9,3-9.9,6.6c0,4.3,3.6,7,9.5,7
		C1210,95,1214.6,92.3,1216.6,87.4z"/>
	<path fill="#3B4A57" d="M1233.4,44.3c0-2.8,2.3-5.1,5.3-5.1c3,0,5.3,2.2,5.3,4.9c0,2.9-2.2,5.2-5.3,5.2
		C1235.6,49.3,1233.4,47.1,1233.4,44.3z M1234.7,57.6h7.8v42.9h-7.8V57.6z"/>
	<path fill="#3B4A57" d="M1247.9,96l3.2-6.2c3.6,2.6,9.5,4.5,15.1,4.5c7.2,0,10.2-2.2,10.2-5.8c0-9.6-27.1-1.3-27.1-18.4
		c0-7.7,6.9-12.9,17.9-12.9c5.6,0,11.9,1.5,15.6,3.9l-3.3,6.2c-3.9-2.5-8.2-3.4-12.4-3.4c-6.8,0-10.1,2.5-10.1,5.9
		c0,10.1,27.2,1.9,27.2,18.6c0,7.8-7.1,12.7-18.6,12.7C1258.5,101,1251.4,98.8,1247.9,96z"/>
</g>
</svg>
