<?xml version="1.0" encoding="utf-8"?>
<!-- Generator: Adobe Illustrator 28.5.0, SVG Export Plug-In . SVG Version: 9.03 Build 54727)  -->
<svg version="1.1" id="Camada_1" xmlns="http://www.w3.org/2000/svg" xmlns:xlink="http://www.w3.org/1999/xlink" x="0px" y="0px"
	 width="1358.4px" height="188px" viewBox="0 0 1358.4 188" style="enable-background:new 0 0 1358.4 188;" xml:space="preserve">
<style type="text/css">
	.st0{fill:#CE94C1;}
	.st1{fill:#A74D8D;}
	.st2{fill:#575756;}
	.st3{fill:#82256A;}
</style>
<g>
	<path class="st0" d="M129.5,145.5h-13.1c-5.6,0-10.6-3.3-12.9-8.5L56,27.2c-4-9.2,2.8-19.6,12.9-19.6H82c5.6,0,10.6,3.3,12.9,8.5
		l47.5,109.9C146.3,135.2,139.5,145.5,129.5,145.5z"/>
</g>
<g>
	<path class="st1" d="M112.3,145.5H99.3c-5.6,0-10.6-3.3-12.9-8.5L38.9,27.2c-4-9.2,2.8-19.6,12.9-19.6h13.1
		c5.6,0,10.6,3.3,12.9,8.5l47.5,109.9C129.2,135.2,122.4,145.5,112.3,145.5z"/>
</g>
<g>
	<path class="st2" d="M271.1,72.7v71.9h-10.4v-20.2c-7.2,13-21.1,21.1-40.8,21.1c-25.4,0-40.8-13-40.8-32.4
		c0-17.2,10.9-31.7,42.4-31.7h38.9v-9.1c0-21.1-11.5-32.4-33.7-32.4c-15.6,0-29.8,5.9-39.1,14.3l-5.4-7.8
		c11.3-10,27.8-16.1,45.4-16.1C255.5,30.4,271.1,44.7,271.1,72.7z M260.3,111.2V89.9h-38.7c-23.5,0-31.7,9.8-31.7,22.8
		c0,14.8,11.5,23.9,31.5,23.9C240.5,136.6,253.8,127.5,260.3,111.2z"/>
	<path class="st2" d="M291.9,87.9c0-33.9,24.1-57.6,57.3-57.6c18,0,33.7,7,43,20.9l-8,5.9c-8.3-11.5-20.9-16.9-35-16.9
		c-26.7,0-46.3,19.1-46.3,47.8s19.6,47.8,46.3,47.8c14.1,0,26.7-5.4,35-16.9l8,5.9c-9.3,13.7-25,20.9-43,20.9
		C316,145.5,291.9,121.6,291.9,87.9z"/>
	<path class="st2" d="M472.8,137.5c-5.6,5.4-14.8,8-23.2,8c-20,0-30.8-11.7-30.8-30.8V40.6h-20.9v-9.3h20.9V6.5h10.9v24.8h36.1v9.3
		h-36.1v73c0,14.6,7.2,22.6,21.1,22.6c6.7,0,13-2.2,17.6-6.3L472.8,137.5z"/>
	<path class="st2" d="M473.9,87.9c0-33.7,24.1-57.6,56.7-57.6s56.7,23.9,56.7,57.6s-24.1,57.6-56.7,57.6S473.9,121.6,473.9,87.9z
		 M576.3,87.9c0-28.5-19.6-47.8-45.6-47.8c-26.1,0-45.6,19.3-45.6,47.8s19.6,47.8,45.6,47.8C556.7,135.7,576.3,116.4,576.3,87.9z"/>
</g>
<g>
	<path class="st3" d="M7.3,123c0-11.3,9.1-20.4,20.4-20.4c11.3,0,20.4,9.1,20.4,20.4c0,11.2-9.1,20.4-20.4,20.4
		C16.4,143.4,7.3,134.3,7.3,123"/>
</g>
<g>
	<path class="st3" d="M95.2,145.5H82.1c-5.6,0-10.6-3.3-12.9-8.5L21.8,27.2c-4-9.2,2.8-19.6,12.9-19.6h13.1c5.6,0,10.6,3.3,12.9,8.5
		l47.5,109.9C112.1,135.2,105.3,145.5,95.2,145.5z"/>
</g>
<g>
	<path class="st3" d="M662.7,102.7c-4.7,0-9-0.8-13-2.4c-4-1.6-7.5-3.8-10.4-6.6c-2.9-2.8-5.2-6.2-6.8-10c-1.6-3.8-2.5-7.9-2.5-12.5
		c0-4.5,0.8-8.6,2.5-12.5c1.6-3.8,3.9-7.1,6.8-10c2.9-2.8,6.4-5,10.3-6.6c4-1.6,8.3-2.4,13.1-2.4c4.7,0,9,0.8,13,2.3
		c4,1.5,7.4,3.7,10.3,6.6c2.9,2.8,5.2,6.2,6.8,10c1.6,3.8,2.4,8,2.4,12.5c0,4.6-0.8,8.7-2.4,12.5c-1.6,3.8-3.9,7.1-6.8,10
		c-2.9,2.8-6.4,5-10.3,6.6C671.7,101.9,667.4,102.7,662.7,102.7z M662.7,94.9c3.4,0,6.6-0.6,9.5-1.8c2.9-1.2,5.4-2.8,7.5-5
		c2.1-2.1,3.8-4.6,5-7.5c1.2-2.9,1.8-6,1.8-9.4c0-3.4-0.6-6.5-1.8-9.3c-1.2-2.8-2.9-5.3-5-7.5c-2.1-2.2-4.6-3.8-7.5-5
		c-2.9-1.2-6.1-1.8-9.5-1.8c-3.4,0-6.5,0.6-9.4,1.8c-2.9,1.2-5.4,2.8-7.6,5c-2.2,2.2-3.8,4.7-5,7.5c-1.2,2.8-1.8,5.9-1.8,9.3
		c0,3.4,0.6,6.5,1.8,9.4c1.2,2.9,2.9,5.4,5,7.5c2.2,2.1,4.7,3.8,7.6,5C656.1,94.3,659.3,94.9,662.7,94.9z"/>
	<path class="st3" d="M702.9,102V36.9h8.4v31l-0.9,10.8l0.5,10.8V102H702.9z M727.5,102.5c-4,0-7.6-0.9-10.7-2.7
		c-3.2-1.8-5.7-4.4-7.5-7.9c-1.8-3.5-2.8-7.9-2.8-13.2c0-5.3,0.9-9.6,2.8-13.2c1.9-3.5,4.4-6.1,7.6-7.9c3.2-1.8,6.7-2.6,10.6-2.6
		c4.6,0,8.6,1,12.1,3c3.5,2,6.3,4.7,8.3,8.3c2,3.5,3.1,7.7,3.1,12.4s-1,8.9-3.1,12.5c-2,3.6-4.8,6.3-8.3,8.3
		C736.1,101.5,732.1,102.5,727.5,102.5z M726.8,95.1c3,0,5.7-0.7,8-2c2.4-1.3,4.2-3.3,5.6-5.7c1.4-2.5,2.1-5.4,2.1-8.6
		c0-3.3-0.7-6.2-2.1-8.6c-1.4-2.4-3.2-4.3-5.6-5.7c-2.4-1.3-5-2-8-2c-2.9,0-5.6,0.7-7.9,2c-2.4,1.3-4.2,3.2-5.6,5.7
		c-1.4,2.4-2.1,5.3-2.1,8.6c0,3.3,0.7,6.2,2.1,8.6c1.4,2.5,3.2,4.4,5.6,5.7C721.3,94.5,723.9,95.1,726.8,95.1z"/>
	<path class="st3" d="M757.6,102V55.5h8.1v12.6l-0.8-3.2c1.3-3.2,3.4-5.7,6.5-7.4c3-1.7,6.8-2.5,11.2-2.5v8.2
		c-0.4-0.1-0.7-0.1-1-0.1c-0.3,0-0.6,0-0.9,0c-4.5,0-8.1,1.3-10.7,4c-2.6,2.7-3.9,6.6-3.9,11.7V102H757.6z"/>
	<path class="st3" d="M800.7,102.5c-3.4,0-6.5-0.6-9.1-1.8c-2.6-1.2-4.6-2.8-6-4.9c-1.4-2.1-2.1-4.4-2.1-7.1c0-2.5,0.6-4.8,1.8-6.8
		c1.2-2,3.2-3.7,5.9-4.9c2.7-1.2,6.4-1.8,11-1.8h14.7v6h-14.4c-4.2,0-7,0.7-8.5,2.1c-1.5,1.4-2.2,3.1-2.2,5.1c0,2.3,0.9,4.1,2.7,5.5
		c1.8,1.4,4.3,2.1,7.5,2.1c3.2,0,5.9-0.7,8.3-2.1c2.4-1.4,4.1-3.4,5.1-6.1l1.7,5.8c-1.1,2.7-3.1,4.9-5.9,6.5
		C808.5,101.7,805,102.5,800.7,102.5z M816,102v-9.8l-0.4-1.8V73.6c0-3.6-1-6.3-3.1-8.3c-2.1-2-5.2-2.9-9.3-2.9
		c-2.7,0-5.4,0.5-8.1,1.4c-2.6,0.9-4.9,2.1-6.7,3.6l-3.5-6.3c2.4-1.9,5.3-3.4,8.6-4.4c3.4-1,6.9-1.5,10.6-1.5
		c6.4,0,11.3,1.5,14.7,4.6c3.4,3.1,5.2,7.8,5.2,14.2V102H816z"/>
	<path class="st3" d="M847.7,102.5c-3.9,0-7.5-0.5-11-1.6c-3.5-1.1-6.2-2.3-8.2-3.9l3.5-6.7c2,1.3,4.4,2.5,7.4,3.4
		c2.9,0.9,5.9,1.4,8.9,1.4c3.9,0,6.7-0.6,8.5-1.7c1.7-1.1,2.6-2.7,2.6-4.6c0-1.5-0.5-2.6-1.6-3.4c-1.1-0.8-2.4-1.4-4.2-1.8
		c-1.7-0.4-3.6-0.8-5.7-1.1c-2.1-0.3-4.2-0.7-6.3-1.2c-2.1-0.5-4-1.2-5.8-2.1c-1.8-0.9-3.2-2.2-4.2-3.8c-1.1-1.6-1.6-3.8-1.6-6.4
		c0-2.8,0.8-5.3,2.4-7.4c1.6-2.1,3.8-3.7,6.7-4.9c2.9-1.1,6.3-1.7,10.3-1.7c3,0,6.1,0.4,9.2,1.1c3.1,0.7,5.7,1.8,7.7,3.1l-3.6,6.7
		c-2.1-1.4-4.3-2.4-6.6-2.9c-2.3-0.5-4.6-0.8-6.8-0.8c-3.7,0-6.4,0.6-8.2,1.8c-1.8,1.2-2.7,2.7-2.7,4.6c0,1.6,0.5,2.8,1.6,3.6
		c1.1,0.8,2.5,1.5,4.2,2c1.7,0.5,3.6,0.9,5.7,1.2c2.1,0.3,4.2,0.7,6.3,1.2c2.1,0.5,4,1.2,5.7,2.1c1.7,0.9,3.1,2.1,4.2,3.7
		c1.1,1.6,1.6,3.7,1.6,6.3c0,2.8-0.8,5.2-2.5,7.3c-1.6,2-3.9,3.6-6.9,4.8C855.4,101.9,851.9,102.5,847.7,102.5z"/>
	<path class="st3" d="M919.1,102.5c-5,0-9.3-1-13.1-3.1c-3.8-2-6.7-4.9-8.8-8.4c-2.1-3.6-3.1-7.7-3.1-12.3c0-4.6,1-8.7,3-12.3
		c2-3.6,4.8-6.4,8.3-8.4c3.5-2,7.5-3,12-3c4.5,0,8.5,1,11.9,3c3.4,2,6.2,4.8,8.1,8.4c2,3.6,2.9,7.8,2.9,12.6c0,0.4,0,0.8,0,1.2
		c0,0.5-0.1,0.9-0.1,1.3h-39.5v-6h35.2l-3.4,2.1c0.1-3-0.6-5.6-1.8-8c-1.3-2.3-3.1-4.2-5.3-5.5c-2.3-1.3-4.9-2-7.8-2
		c-2.9,0-5.5,0.7-7.8,2c-2.3,1.3-4.1,3.2-5.3,5.5c-1.3,2.4-1.9,5.1-1.9,8.1v1.4c0,3.1,0.7,5.9,2.1,8.3c1.4,2.4,3.4,4.3,6,5.7
		c2.6,1.3,5.5,2,8.9,2c2.7,0,5.2-0.5,7.5-1.4c2.2-0.9,4.2-2.3,5.9-4.2l4.6,5.4c-2.1,2.5-4.7,4.3-7.8,5.6
		C926.4,101.9,922.9,102.5,919.1,102.5z"/>
	<path class="st3" d="M982.1,102h-8.8V40.6h8.8V102z M1018.2,74.6h-36.9V67h36.9V74.6z M1017.4,40.6h8.8V102h-8.8V40.6z"/>
	<path class="st3" d="M1050.8,102.5c-3.4,0-6.5-0.6-9.1-1.8c-2.6-1.2-4.6-2.8-6-4.9c-1.4-2.1-2.1-4.4-2.1-7.1c0-2.5,0.6-4.8,1.8-6.8
		c1.2-2,3.2-3.7,5.9-4.9c2.7-1.2,6.4-1.8,11-1.8h14.7v6h-14.4c-4.2,0-7,0.7-8.5,2.1c-1.5,1.4-2.2,3.1-2.2,5.1c0,2.3,0.9,4.1,2.7,5.5
		c1.8,1.4,4.3,2.1,7.5,2.1c3.2,0,5.9-0.7,8.3-2.1c2.4-1.4,4.1-3.4,5.1-6.1l1.7,5.8c-1.1,2.7-3.1,4.9-5.9,6.5
		C1058.6,101.7,1055.1,102.5,1050.8,102.5z M1066.1,102v-9.8l-0.4-1.8V73.6c0-3.6-1-6.3-3.1-8.3c-2.1-2-5.2-2.9-9.3-2.9
		c-2.7,0-5.4,0.5-8.1,1.4c-2.6,0.9-4.9,2.1-6.7,3.6L1035,61c2.4-1.9,5.3-3.4,8.6-4.4c3.4-1,6.9-1.5,10.6-1.5
		c6.4,0,11.3,1.5,14.7,4.6c3.4,3.1,5.2,7.8,5.2,14.2V102H1066.1z"/>
	<path class="st3" d="M1083.2,102V36.9h8.4v31l-0.9,10.8l0.5,10.8V102H1083.2z M1107.9,102.5c-4,0-7.6-0.9-10.7-2.7
		c-3.2-1.8-5.7-4.4-7.5-7.9c-1.8-3.5-2.8-7.9-2.8-13.2c0-5.3,0.9-9.6,2.8-13.2c1.9-3.5,4.4-6.1,7.6-7.9c3.2-1.8,6.7-2.6,10.6-2.6
		c4.6,0,8.6,1,12.1,3c3.5,2,6.3,4.7,8.3,8.3c2,3.5,3.1,7.7,3.1,12.4s-1,8.9-3.1,12.5c-2,3.6-4.8,6.3-8.3,8.3
		C1116.5,101.5,1112.4,102.5,1107.9,102.5z M1107.2,95.1c3,0,5.7-0.7,8-2c2.4-1.3,4.2-3.3,5.6-5.7c1.4-2.5,2.1-5.4,2.1-8.6
		c0-3.3-0.7-6.2-2.1-8.6c-1.4-2.4-3.2-4.3-5.6-5.7c-2.4-1.3-5-2-8-2c-2.9,0-5.6,0.7-7.9,2c-2.4,1.3-4.2,3.2-5.6,5.7
		c-1.4,2.4-2.1,5.3-2.1,8.6c0,3.3,0.7,6.2,2.1,8.6c1.4,2.5,3.2,4.4,5.6,5.7C1101.6,94.5,1104.2,95.1,1107.2,95.1z"/>
	<path class="st3" d="M1141.7,46.6c-1.6,0-3-0.5-4.1-1.6c-1.1-1.1-1.6-2.3-1.6-3.9c0-1.6,0.5-2.9,1.6-3.9c1.1-1.1,2.4-1.6,4.1-1.6
		c1.6,0,3,0.5,4.1,1.5c1.1,1,1.6,2.3,1.6,3.8c0,1.6-0.5,2.9-1.6,4C1144.8,46,1143.4,46.6,1141.7,46.6z M1137.5,102V55.5h8.4V102
		H1137.5z"/>
	<path class="st3" d="M1150.3,62.4v-6.9h29.6v6.9H1150.3z M1172.9,102.5c-4.7,0-8.3-1.3-10.9-3.8c-2.6-2.5-3.9-6.1-3.9-10.8V45.3
		h8.4v42.3c0,2.5,0.6,4.4,1.9,5.8c1.3,1.3,3.1,2,5.4,2c2.6,0,4.8-0.7,6.6-2.2l2.6,6c-1.3,1.1-2.8,1.9-4.6,2.5
		C1176.7,102.2,1174.8,102.5,1172.9,102.5z"/>
	<path class="st3" d="M1206.8,102.5c-5,0-9.3-1-13.1-3.1c-3.8-2-6.7-4.9-8.8-8.4c-2.1-3.6-3.1-7.7-3.1-12.3c0-4.6,1-8.7,3-12.3
		c2-3.6,4.8-6.4,8.3-8.4c3.5-2,7.5-3,12-3c4.5,0,8.5,1,11.9,3c3.4,2,6.2,4.8,8.1,8.4c2,3.6,2.9,7.8,2.9,12.6c0,0.4,0,0.8,0,1.2
		c0,0.5-0.1,0.9-0.1,1.3h-39.5v-6h35.2l-3.4,2.1c0.1-3-0.6-5.6-1.8-8c-1.3-2.3-3.1-4.2-5.3-5.5c-2.3-1.3-4.9-2-7.8-2
		c-2.9,0-5.5,0.7-7.8,2c-2.3,1.3-4.1,3.2-5.3,5.5c-1.3,2.4-1.9,5.1-1.9,8.1v1.4c0,3.1,0.7,5.9,2.1,8.3c1.4,2.4,3.4,4.3,6,5.7
		c2.6,1.3,5.5,2,8.9,2c2.7,0,5.2-0.5,7.5-1.4c2.2-0.9,4.2-2.3,5.9-4.2l4.6,5.4c-2.1,2.5-4.7,4.3-7.8,5.6
		C1214.2,101.9,1210.7,102.5,1206.8,102.5z"/>
	<path class="st3" d="M1233.3,81.5v-7.3h23.6v7.3H1233.3z"/>
	<path class="st3" d="M1278.7,102.5c-3.9,0-7.5-0.5-11-1.6c-3.5-1.1-6.2-2.3-8.2-3.9l3.5-6.7c2,1.3,4.4,2.5,7.4,3.4
		c2.9,0.9,5.9,1.4,8.9,1.4c3.9,0,6.7-0.6,8.5-1.7c1.7-1.1,2.6-2.7,2.6-4.6c0-1.5-0.5-2.6-1.6-3.4c-1.1-0.8-2.4-1.4-4.2-1.8
		c-1.7-0.4-3.6-0.8-5.7-1.1c-2.1-0.3-4.2-0.7-6.3-1.2c-2.1-0.5-4-1.2-5.8-2.1c-1.8-0.9-3.2-2.2-4.2-3.8c-1.1-1.6-1.6-3.8-1.6-6.4
		c0-2.8,0.8-5.3,2.4-7.4c1.6-2.1,3.8-3.7,6.7-4.9c2.9-1.1,6.3-1.7,10.3-1.7c3,0,6.1,0.4,9.2,1.1c3.1,0.7,5.7,1.8,7.7,3.1l-3.6,6.7
		c-2.1-1.4-4.3-2.4-6.6-2.9c-2.3-0.5-4.6-0.8-6.8-0.8c-3.7,0-6.4,0.6-8.2,1.8c-1.8,1.2-2.7,2.7-2.7,4.6c0,1.6,0.5,2.8,1.6,3.6
		c1.1,0.8,2.5,1.5,4.2,2c1.7,0.5,3.6,0.9,5.7,1.2c2.1,0.3,4.2,0.7,6.3,1.2c2.1,0.5,4,1.2,5.7,2.1c1.7,0.9,3.1,2.1,4.2,3.7
		c1.1,1.6,1.6,3.7,1.6,6.3c0,2.8-0.8,5.2-2.5,7.3c-1.6,2-3.9,3.6-6.9,4.8C1286.4,101.9,1282.8,102.5,1278.7,102.5z"/>
	<path class="st3" d="M1326.6,102.5c-5,0-9.3-1-13.1-3.1c-3.8-2-6.7-4.9-8.8-8.4c-2.1-3.6-3.1-7.7-3.1-12.3c0-4.6,1-8.7,3-12.3
		c2-3.6,4.8-6.4,8.3-8.4c3.5-2,7.5-3,12-3c4.5,0,8.5,1,11.9,3c3.4,2,6.2,4.8,8.1,8.4c2,3.6,2.9,7.8,2.9,12.6c0,0.4,0,0.8,0,1.2
		c0,0.5-0.1,0.9-0.1,1.3h-39.5v-6h35.2l-3.4,2.1c0.1-3-0.6-5.6-1.8-8c-1.3-2.3-3.1-4.2-5.3-5.5c-2.3-1.3-4.9-2-7.8-2
		c-2.9,0-5.5,0.7-7.8,2c-2.3,1.3-4.1,3.2-5.3,5.5c-1.3,2.4-1.9,5.1-1.9,8.1v1.4c0,3.1,0.7,5.9,2.1,8.3c1.4,2.4,3.4,4.3,6,5.7
		c2.6,1.3,5.5,2,8.9,2c2.7,0,5.2-0.5,7.5-1.4c2.2-0.9,4.2-2.3,5.9-4.2l4.6,5.4c-2.1,2.5-4.7,4.3-7.8,5.6
		C1333.9,101.9,1330.5,102.5,1326.6,102.5z"/>
</g>
</svg>
