<?xml version="1.0" encoding="utf-8"?>
<!-- Generator: Adobe Illustrator 28.1.0, SVG Export Plug-In . SVG Version: 6.00 Build 0)  -->
<svg version="1.1" id="Camada_1" xmlns="http://www.w3.org/2000/svg" xmlns:xlink="http://www.w3.org/1999/xlink" x="0px" y="0px"
	 width="398.6px" height="398.6px" viewBox="0 0 398.6 398.6" style="enable-background:new 0 0 398.6 398.6;" xml:space="preserve"
	>
<style type="text/css">
	.st0{display:none;fill:#565555;}
	.st1{fill:#F39207;}
</style>
<path class="st0" d="M398.6,199.3c0,77.3-44,144.3-108.4,177.4c-27.3,14-58.2,21.9-90.9,21.9C89.2,398.6,0,309.4,0,199.3
	S89.2,0,199.3,0S398.6,89.2,398.6,199.3z"/>
<path class="st1" d="M398.6,199.3c0,35.9-4.2,84.8-46,123.4s-73.2,61-135.9,71.8C154,405.3,86.6,367.6,50.1,328.3
	C18.9,294.8,0,250,0,199.3C0,89.2,89.2,0,199.3,0S398.6,89.2,398.6,199.3z"/>
</svg>
